<mxfile host="app.diagrams.net" modified="2021-07-08T11:12:13.353Z" agent="5.0 (X11; Linux x86_64) AppleWebKit/537.36 (KHTML, like Gecko) Chrome/91.0.4472.101 Safari/537.36" etag="iLRnTNCEX4JD1uS63l_l" version="14.8.4" type="github" pages="5">
  <diagram id="XJpDfpVqEs_X0gmeq90e" name="Page-1">
    <mxGraphModel dx="3270" dy="1326" grid="1" gridSize="10" guides="1" tooltips="1" connect="1" arrows="1" fold="1" page="1" pageScale="1" pageWidth="827" pageHeight="1169" math="0" shadow="0">
      <root>
        <mxCell id="0" />
        <mxCell id="1" parent="0" />
        <mxCell id="LI_20KDizkYBDGB6hoM7-13" value="&lt;b&gt;router&lt;/b&gt;" style="rounded=0;whiteSpace=wrap;html=1;align=left;verticalAlign=top;" parent="1" vertex="1">
          <mxGeometry x="500" y="220" width="290" height="170" as="geometry" />
        </mxCell>
        <mxCell id="LI_20KDizkYBDGB6hoM7-19" value="&lt;b&gt;Connection&lt;/b&gt;" style="rounded=0;whiteSpace=wrap;html=1;align=left;verticalAlign=top;" parent="1" vertex="1">
          <mxGeometry x="590" y="250" width="170" height="120" as="geometry" />
        </mxCell>
        <mxCell id="LI_20KDizkYBDGB6hoM7-1" value="Message Flows" style="text;html=1;strokeColor=none;fillColor=none;align=center;verticalAlign=middle;whiteSpace=wrap;rounded=0;" parent="1" vertex="1">
          <mxGeometry x="280" y="20" width="230" height="20" as="geometry" />
        </mxCell>
        <mxCell id="LI_20KDizkYBDGB6hoM7-8" value="&lt;span style=&quot;color: rgb(0 , 0 , 0) ; font-family: &amp;#34;helvetica&amp;#34; ; font-size: 11px ; font-style: normal ; font-weight: 400 ; letter-spacing: normal ; text-align: left ; text-indent: 0px ; text-transform: none ; word-spacing: 0px ; background-color: rgb(248 , 249 , 250) ; display: inline ; float: none&quot;&gt;{&#39;jsonrpc&#39;: &#39;2.0&#39;,&amp;nbsp;&lt;/span&gt;&lt;br style=&quot;color: rgb(0 , 0 , 0) ; font-family: &amp;#34;helvetica&amp;#34; ; font-size: 11px ; font-style: normal ; font-weight: 400 ; letter-spacing: normal ; text-align: left ; text-indent: 0px ; text-transform: none ; word-spacing: 0px ; background-color: rgb(248 , 249 , 250)&quot;&gt;&lt;span style=&quot;color: rgb(0 , 0 , 0) ; font-family: &amp;#34;helvetica&amp;#34; ; font-size: 11px ; font-style: normal ; font-weight: 400 ; letter-spacing: normal ; text-align: left ; text-indent: 0px ; text-transform: none ; word-spacing: 0px ; background-color: rgb(248 , 249 , 250) ; display: inline ; float: none&quot;&gt;&amp;nbsp;&#39;method&#39;: &#39;regist_obj&#39;,&lt;/span&gt;&lt;br style=&quot;color: rgb(0 , 0 , 0) ; font-family: &amp;#34;helvetica&amp;#34; ; font-size: 11px ; font-style: normal ; font-weight: 400 ; letter-spacing: normal ; text-align: left ; text-indent: 0px ; text-transform: none ; word-spacing: 0px ; background-color: rgb(248 , 249 , 250)&quot;&gt;&lt;span style=&quot;color: rgb(0 , 0 , 0) ; font-family: &amp;#34;helvetica&amp;#34; ; font-size: 11px ; font-style: normal ; font-weight: 400 ; letter-spacing: normal ; text-align: left ; text-indent: 0px ; text-transform: none ; word-spacing: 0px ; background-color: rgb(248 , 249 , 250) ; display: inline ; float: none&quot;&gt;&amp;nbsp;&#39;params&#39;: {&#39;name&#39;: MockProvider,&amp;nbsp;&lt;/span&gt;&lt;br style=&quot;color: rgb(0 , 0 , 0) ; font-family: &amp;#34;helvetica&amp;#34; ; font-size: 11px ; font-style: normal ; font-weight: 400 ; letter-spacing: normal ; text-align: left ; text-indent: 0px ; text-transform: none ; word-spacing: 0px ; background-color: rgb(248 , 249 , 250)&quot;&gt;&lt;span style=&quot;color: rgb(0 , 0 , 0) ; font-family: &amp;#34;helvetica&amp;#34; ; font-size: 11px ; font-style: normal ; font-weight: 400 ; letter-spacing: normal ; text-align: left ; text-indent: 0px ; text-transform: none ; word-spacing: 0px ; background-color: rgb(248 , 249 , 250) ; display: inline ; float: none&quot;&gt;&amp;nbsp; &amp;nbsp; &amp;nbsp; &amp;nbsp; &amp;nbsp; &amp;nbsp; &amp;nbsp; &amp;nbsp; &amp;nbsp; &#39;methods&#39;: [&#39;get_kline&#39;, &#39;watch_klines&#39;, &#39;search&#39;],&lt;/span&gt;&lt;br style=&quot;color: rgb(0 , 0 , 0) ; font-family: &amp;#34;helvetica&amp;#34; ; font-size: 11px ; font-style: normal ; font-weight: 400 ; letter-spacing: normal ; text-align: left ; text-indent: 0px ; text-transform: none ; word-spacing: 0px ; background-color: rgb(248 , 249 , 250)&quot;&gt;&lt;span style=&quot;color: rgb(0 , 0 , 0) ; font-family: &amp;#34;helvetica&amp;#34; ; font-size: 11px ; font-style: normal ; font-weight: 400 ; letter-spacing: normal ; text-align: left ; text-indent: 0px ; text-transform: none ; word-spacing: 0px ; background-color: rgb(248 , 249 , 250) ; display: inline ; float: none&quot;&gt;&amp;nbsp; &amp;nbsp; &amp;nbsp; &amp;nbsp; &amp;nbsp; &amp;nbsp; &amp;nbsp; &amp;nbsp; &amp;nbsp; &#39;obj_type&#39;: &#39;type:broker:&#39;},&lt;/span&gt;&lt;br style=&quot;color: rgb(0 , 0 , 0) ; font-family: &amp;#34;helvetica&amp;#34; ; font-size: 11px ; font-style: normal ; font-weight: 400 ; letter-spacing: normal ; text-align: left ; text-indent: 0px ; text-transform: none ; word-spacing: 0px ; background-color: rgb(248 , 249 , 250)&quot;&gt;&lt;span style=&quot;color: rgb(0 , 0 , 0) ; font-family: &amp;#34;helvetica&amp;#34; ; font-size: 11px ; font-style: normal ; font-weight: 400 ; letter-spacing: normal ; text-align: left ; text-indent: 0px ; text-transform: none ; word-spacing: 0px ; background-color: rgb(248 , 249 , 250) ; display: inline ; float: none&quot;&gt;&amp;nbsp;&#39;id&#39;: uuid}&lt;/span&gt;" style="text;whiteSpace=wrap;html=1;fontSize=11;" parent="1" vertex="1">
          <mxGeometry x="210" y="210" width="320" height="100" as="geometry" />
        </mxCell>
        <mxCell id="LI_20KDizkYBDGB6hoM7-10" value="connected" style="edgeStyle=orthogonalEdgeStyle;rounded=0;orthogonalLoop=1;jettySize=auto;html=1;entryX=0;entryY=0.5;entryDx=0;entryDy=0;fontSize=11;" parent="1" source="LI_20KDizkYBDGB6hoM7-6" target="LI_20KDizkYBDGB6hoM7-9" edge="1">
          <mxGeometry relative="1" as="geometry" />
        </mxCell>
        <mxCell id="LI_20KDizkYBDGB6hoM7-6" value="&lt;b&gt;Provider&lt;/b&gt;" style="rounded=0;whiteSpace=wrap;html=1;align=center;verticalAlign=middle;" parent="1" vertex="1">
          <mxGeometry x="80" y="150" width="110" height="50" as="geometry" />
        </mxCell>
        <mxCell id="LI_20KDizkYBDGB6hoM7-9" value="&lt;b&gt;router&lt;/b&gt;" style="rounded=0;whiteSpace=wrap;html=1;align=left;verticalAlign=top;horizontal=1;" parent="1" vertex="1">
          <mxGeometry x="460" y="70" width="300" height="130" as="geometry" />
        </mxCell>
        <mxCell id="LI_20KDizkYBDGB6hoM7-11" value="{&quot;jsonrpc&quot;: &quot;2.0&quot;&lt;br&gt;&amp;nbsp;&#39;method&#39;: &#39;set_connection_info&#39;,&lt;br&gt;&amp;nbsp;&#39;params&#39;: {&quot;connection_id&quot;: &quot;nnnlife&quot;,&lt;br&gt;&lt;span&gt; &lt;/span&gt;&lt;span&gt; &lt;/span&gt;&lt;span&gt; &lt;/span&gt;&lt;span&gt; &lt;/span&gt;&lt;span style=&quot;white-space: pre&quot;&gt; &lt;/span&gt;&lt;span style=&quot;white-space: pre&quot;&gt; &lt;/span&gt;&amp;nbsp; &quot;subscribe_limit&quot;: xx},&lt;br&gt;&amp;nbsp;&#39;id&#39;: uuid}" style="text;whiteSpace=wrap;html=1;fontSize=11;" parent="1" vertex="1">
          <mxGeometry x="210" y="90" width="190" height="70" as="geometry" />
        </mxCell>
        <mxCell id="LI_20KDizkYBDGB6hoM7-14" style="edgeStyle=orthogonalEdgeStyle;rounded=0;orthogonalLoop=1;jettySize=auto;html=1;entryX=0;entryY=0.5;entryDx=0;entryDy=0;fontSize=11;" parent="1" source="LI_20KDizkYBDGB6hoM7-12" target="LI_20KDizkYBDGB6hoM7-13" edge="1">
          <mxGeometry relative="1" as="geometry" />
        </mxCell>
        <mxCell id="LI_20KDizkYBDGB6hoM7-12" value="&lt;b&gt;Provider&lt;/b&gt;" style="rounded=0;whiteSpace=wrap;html=1;align=center;verticalAlign=middle;" parent="1" vertex="1">
          <mxGeometry x="80" y="280" width="110" height="50" as="geometry" />
        </mxCell>
        <mxCell id="LI_20KDizkYBDGB6hoM7-15" value="&lt;b&gt;router&lt;/b&gt;" style="rounded=0;whiteSpace=wrap;html=1;align=left;verticalAlign=top;" parent="1" vertex="1">
          <mxGeometry x="390" y="420" width="180" height="110" as="geometry" />
        </mxCell>
        <mxCell id="LI_20KDizkYBDGB6hoM7-17" style="edgeStyle=orthogonalEdgeStyle;rounded=0;orthogonalLoop=1;jettySize=auto;html=1;fontSize=11;exitX=1;exitY=0.418;exitDx=0;exitDy=0;exitPerimeter=0;" parent="1" source="LI_20KDizkYBDGB6hoM7-16" edge="1">
          <mxGeometry relative="1" as="geometry">
            <mxPoint x="190" y="445.0344827586207" as="sourcePoint" />
            <mxPoint x="391" y="451" as="targetPoint" />
            <Array as="points">
              <mxPoint x="190" y="450" />
              <mxPoint x="387" y="450" />
              <mxPoint x="387" y="451" />
            </Array>
          </mxGeometry>
        </mxCell>
        <mxCell id="LI_20KDizkYBDGB6hoM7-16" value="&lt;b&gt;Client&lt;/b&gt;" style="rounded=0;whiteSpace=wrap;html=1;align=center;verticalAlign=middle;" parent="1" vertex="1">
          <mxGeometry x="80" y="420" width="110" height="50" as="geometry" />
        </mxCell>
        <mxCell id="LI_20KDizkYBDGB6hoM7-18" value="&lt;b&gt;MockProvider&lt;/b&gt;&lt;br&gt;obj_type&lt;br&gt;methods:&lt;br&gt;&lt;span style=&quot;white-space: pre&quot;&gt; &lt;/span&gt;[get_kline..]" style="rounded=0;whiteSpace=wrap;html=1;align=left;verticalAlign=top;" parent="1" vertex="1">
          <mxGeometry x="610" y="280" width="140" height="80" as="geometry" />
        </mxCell>
        <mxCell id="LI_20KDizkYBDGB6hoM7-20" value="&lt;span style=&quot;color: rgb(0 , 0 , 0) ; font-family: &amp;#34;helvetica&amp;#34; ; font-size: 11px ; font-style: normal ; font-weight: 400 ; letter-spacing: normal ; text-align: left ; text-indent: 0px ; text-transform: none ; word-spacing: 0px ; background-color: rgb(248 , 249 , 250) ; display: inline ; float: none&quot;&gt;{&#39;jsonrpc&#39;: &#39;2.0&#39;,&amp;nbsp;&lt;/span&gt;&lt;br style=&quot;color: rgb(0 , 0 , 0) ; font-family: &amp;#34;helvetica&amp;#34; ; font-size: 11px ; font-style: normal ; font-weight: 400 ; letter-spacing: normal ; text-align: left ; text-indent: 0px ; text-transform: none ; word-spacing: 0px ; background-color: rgb(248 , 249 , 250)&quot;&gt;&lt;span style=&quot;color: rgb(0 , 0 , 0) ; font-family: &amp;#34;helvetica&amp;#34; ; font-size: 11px ; font-style: normal ; font-weight: 400 ; letter-spacing: normal ; text-align: left ; text-indent: 0px ; text-transform: none ; word-spacing: 0px ; background-color: rgb(248 , 249 , 250) ; display: inline ; float: none&quot;&gt;&amp;nbsp;&#39;method&#39;: &#39;router.get_obj&#39;,&lt;/span&gt;&lt;br style=&quot;color: rgb(0 , 0 , 0) ; font-family: &amp;#34;helvetica&amp;#34; ; font-size: 11px ; font-style: normal ; font-weight: 400 ; letter-spacing: normal ; text-align: left ; text-indent: 0px ; text-transform: none ; word-spacing: 0px ; background-color: rgb(248 , 249 , 250)&quot;&gt;&lt;span style=&quot;color: rgb(0 , 0 , 0) ; font-family: &amp;#34;helvetica&amp;#34; ; font-size: 11px ; font-style: normal ; font-weight: 400 ; letter-spacing: normal ; text-align: left ; text-indent: 0px ; text-transform: none ; word-spacing: 0px ; background-color: rgb(248 , 249 , 250) ; display: inline ; float: none&quot;&gt;&amp;nbsp;&#39;params&#39;: {&#39;name&#39;: MockProvider&lt;/span&gt;&lt;span style=&quot;color: rgb(0 , 0 , 0) ; font-family: &amp;#34;helvetica&amp;#34; ; font-size: 11px ; font-style: normal ; font-weight: 400 ; letter-spacing: normal ; text-align: left ; text-indent: 0px ; text-transform: none ; word-spacing: 0px ; background-color: rgb(248 , 249 , 250) ; display: inline ; float: none&quot;&gt;},&lt;/span&gt;&lt;br style=&quot;color: rgb(0 , 0 , 0) ; font-family: &amp;#34;helvetica&amp;#34; ; font-size: 11px ; font-style: normal ; font-weight: 400 ; letter-spacing: normal ; text-align: left ; text-indent: 0px ; text-transform: none ; word-spacing: 0px ; background-color: rgb(248 , 249 , 250)&quot;&gt;&lt;span style=&quot;color: rgb(0 , 0 , 0) ; font-family: &amp;#34;helvetica&amp;#34; ; font-size: 11px ; font-style: normal ; font-weight: 400 ; letter-spacing: normal ; text-align: left ; text-indent: 0px ; text-transform: none ; word-spacing: 0px ; background-color: rgb(248 , 249 , 250) ; display: inline ; float: none&quot;&gt;&amp;nbsp;&#39;id&#39;: uuid}&lt;/span&gt;" style="text;whiteSpace=wrap;html=1;fontSize=11;" parent="1" vertex="1">
          <mxGeometry x="190" y="360" width="180" height="60" as="geometry" />
        </mxCell>
        <mxCell id="LI_20KDizkYBDGB6hoM7-21" value="&lt;b&gt;Connection&lt;br&gt;&lt;/b&gt;id&lt;br&gt;subscribe_limit" style="rounded=0;whiteSpace=wrap;html=1;align=left;verticalAlign=top;" parent="1" vertex="1">
          <mxGeometry x="560" y="75" width="170" height="120" as="geometry" />
        </mxCell>
        <mxCell id="LI_20KDizkYBDGB6hoM7-22" value="&lt;b&gt;Connection&lt;/b&gt;" style="rounded=0;whiteSpace=wrap;html=1;align=left;verticalAlign=top;" parent="1" vertex="1">
          <mxGeometry x="440" y="450" width="110" height="70" as="geometry" />
        </mxCell>
        <mxCell id="LI_20KDizkYBDGB6hoM7-23" value="&lt;b&gt;MockProvider&lt;/b&gt;" style="rounded=0;whiteSpace=wrap;html=1;align=left;verticalAlign=top;" parent="1" vertex="1">
          <mxGeometry x="450" y="480" width="90" height="30" as="geometry" />
        </mxCell>
        <mxCell id="LI_20KDizkYBDGB6hoM7-24" value="return obj information" style="endArrow=classic;html=1;fontSize=11;exitX=0;exitY=0.75;exitDx=0;exitDy=0;" parent="1" source="LI_20KDizkYBDGB6hoM7-23" edge="1">
          <mxGeometry width="50" height="50" relative="1" as="geometry">
            <mxPoint x="210" y="630" as="sourcePoint" />
            <mxPoint x="170" y="503" as="targetPoint" />
          </mxGeometry>
        </mxCell>
        <mxCell id="LI_20KDizkYBDGB6hoM7-28" style="edgeStyle=orthogonalEdgeStyle;rounded=0;orthogonalLoop=1;jettySize=auto;html=1;entryX=0;entryY=0.5;entryDx=0;entryDy=0;fontSize=11;" parent="1" source="LI_20KDizkYBDGB6hoM7-25" target="LI_20KDizkYBDGB6hoM7-26" edge="1">
          <mxGeometry relative="1" as="geometry" />
        </mxCell>
        <mxCell id="LI_20KDizkYBDGB6hoM7-25" value="&lt;b&gt;Client&lt;/b&gt;" style="rounded=0;whiteSpace=wrap;html=1;align=center;verticalAlign=middle;" parent="1" vertex="1">
          <mxGeometry x="80" y="610" width="110" height="50" as="geometry" />
        </mxCell>
        <mxCell id="LI_20KDizkYBDGB6hoM7-26" value="&lt;b&gt;router&lt;/b&gt;" style="rounded=0;whiteSpace=wrap;html=1;align=left;verticalAlign=top;" parent="1" vertex="1">
          <mxGeometry x="380" y="610" width="140" height="50" as="geometry" />
        </mxCell>
        <mxCell id="LI_20KDizkYBDGB6hoM7-29" value="&lt;span style=&quot;color: rgb(0 , 0 , 0) ; font-family: &amp;#34;helvetica&amp;#34; ; font-size: 11px ; font-style: normal ; font-weight: 400 ; letter-spacing: normal ; text-align: left ; text-indent: 0px ; text-transform: none ; word-spacing: 0px ; background-color: rgb(248 , 249 , 250) ; display: inline ; float: none&quot;&gt;{&#39;jsonrpc&#39;: &#39;2.0&#39;,&amp;nbsp;&lt;/span&gt;&lt;br style=&quot;color: rgb(0 , 0 , 0) ; font-family: &amp;#34;helvetica&amp;#34; ; font-size: 11px ; font-style: normal ; font-weight: 400 ; letter-spacing: normal ; text-align: left ; text-indent: 0px ; text-transform: none ; word-spacing: 0px ; background-color: rgb(248 , 249 , 250)&quot;&gt;&lt;span style=&quot;color: rgb(0 , 0 , 0) ; font-family: &amp;#34;helvetica&amp;#34; ; font-size: 11px ; font-style: normal ; font-weight: 400 ; letter-spacing: normal ; text-align: left ; text-indent: 0px ; text-transform: none ; word-spacing: 0px ; background-color: rgb(248 , 249 , 250) ; display: inline ; float: none&quot;&gt;&amp;nbsp;&#39;method&#39;: &#39;router.search&#39;,&lt;/span&gt;&lt;br style=&quot;color: rgb(0 , 0 , 0) ; font-family: &amp;#34;helvetica&amp;#34; ; font-size: 11px ; font-style: normal ; font-weight: 400 ; letter-spacing: normal ; text-align: left ; text-indent: 0px ; text-transform: none ; word-spacing: 0px ; background-color: rgb(248 , 249 , 250)&quot;&gt;&lt;span style=&quot;color: rgb(0 , 0 , 0) ; font-family: &amp;#34;helvetica&amp;#34; ; font-size: 11px ; font-style: normal ; font-weight: 400 ; letter-spacing: normal ; text-align: left ; text-indent: 0px ; text-transform: none ; word-spacing: 0px ; background-color: rgb(248 , 249 , 250) ; display: inline ; float: none&quot;&gt;&amp;nbsp;&#39;params&#39;: {&#39;category&#39;: &#39;symbol:cybos&#39;&lt;/span&gt;&lt;span style=&quot;color: rgb(0 , 0 , 0) ; font-family: &amp;#34;helvetica&amp;#34; ; font-size: 11px ; font-style: normal ; font-weight: 400 ; letter-spacing: normal ; text-align: left ; text-indent: 0px ; text-transform: none ; word-spacing: 0px ; background-color: rgb(248 , 249 , 250) ; display: inline ; float: none&quot;&gt;},&lt;/span&gt;&lt;br style=&quot;color: rgb(0 , 0 , 0) ; font-family: &amp;#34;helvetica&amp;#34; ; font-size: 11px ; font-style: normal ; font-weight: 400 ; letter-spacing: normal ; text-align: left ; text-indent: 0px ; text-transform: none ; word-spacing: 0px ; background-color: rgb(248 , 249 , 250)&quot;&gt;&lt;span style=&quot;color: rgb(0 , 0 , 0) ; font-family: &amp;#34;helvetica&amp;#34; ; font-size: 11px ; font-style: normal ; font-weight: 400 ; letter-spacing: normal ; text-align: left ; text-indent: 0px ; text-transform: none ; word-spacing: 0px ; background-color: rgb(248 , 249 , 250) ; display: inline ; float: none&quot;&gt;&amp;nbsp;&#39;id&#39;: uuid}&lt;/span&gt;" style="text;whiteSpace=wrap;html=1;fontSize=11;" parent="1" vertex="1">
          <mxGeometry x="200" y="570" width="210" height="60" as="geometry" />
        </mxCell>
        <mxCell id="LI_20KDizkYBDGB6hoM7-30" value="return objs" style="endArrow=classic;html=1;fontSize=11;" parent="1" edge="1">
          <mxGeometry width="50" height="50" relative="1" as="geometry">
            <mxPoint x="380" y="650" as="sourcePoint" />
            <mxPoint x="190" y="650.5" as="targetPoint" />
          </mxGeometry>
        </mxCell>
        <mxCell id="LI_20KDizkYBDGB6hoM7-31" value="&lt;span style=&quot;color: rgb(0 , 0 , 0) ; font-family: &amp;#34;helvetica&amp;#34; ; font-size: 11px ; font-style: normal ; font-weight: 400 ; letter-spacing: normal ; text-align: left ; text-indent: 0px ; text-transform: none ; word-spacing: 0px ; background-color: rgb(248 , 249 , 250) ; display: inline ; float: none&quot;&gt;{&#39;jsonrpc&#39;: &#39;2.0&#39;,&amp;nbsp;&lt;/span&gt;&lt;br style=&quot;color: rgb(0 , 0 , 0) ; font-family: &amp;#34;helvetica&amp;#34; ; font-size: 11px ; font-style: normal ; font-weight: 400 ; letter-spacing: normal ; text-align: left ; text-indent: 0px ; text-transform: none ; word-spacing: 0px ; background-color: rgb(248 , 249 , 250)&quot;&gt;&lt;span style=&quot;color: rgb(0 , 0 , 0) ; font-family: &amp;#34;helvetica&amp;#34; ; font-size: 11px ; font-style: normal ; font-weight: 400 ; letter-spacing: normal ; text-align: left ; text-indent: 0px ; text-transform: none ; word-spacing: 0px ; background-color: rgb(248 , 249 , 250) ; display: inline ; float: none&quot;&gt;&amp;nbsp;&#39;result&#39;: [MockProvider, ..]&lt;/span&gt;&lt;span style=&quot;color: rgb(0 , 0 , 0) ; font-family: &amp;#34;helvetica&amp;#34; ; font-size: 11px ; font-style: normal ; font-weight: 400 ; letter-spacing: normal ; text-align: left ; text-indent: 0px ; text-transform: none ; word-spacing: 0px ; background-color: rgb(248 , 249 , 250) ; display: inline ; float: none&quot;&gt;,&lt;/span&gt;&lt;br style=&quot;color: rgb(0 , 0 , 0) ; font-family: &amp;#34;helvetica&amp;#34; ; font-size: 11px ; font-style: normal ; font-weight: 400 ; letter-spacing: normal ; text-align: left ; text-indent: 0px ; text-transform: none ; word-spacing: 0px ; background-color: rgb(248 , 249 , 250)&quot;&gt;&lt;span style=&quot;color: rgb(0 , 0 , 0) ; font-family: &amp;#34;helvetica&amp;#34; ; font-size: 11px ; font-style: normal ; font-weight: 400 ; letter-spacing: normal ; text-align: left ; text-indent: 0px ; text-transform: none ; word-spacing: 0px ; background-color: rgb(248 , 249 , 250) ; display: inline ; float: none&quot;&gt;&amp;nbsp;&#39;id&#39;: uuid}&lt;/span&gt;" style="text;whiteSpace=wrap;html=1;fontSize=11;" parent="1" vertex="1">
          <mxGeometry x="200" y="670" width="210" height="60" as="geometry" />
        </mxCell>
        <mxCell id="LI_20KDizkYBDGB6hoM7-34" style="edgeStyle=orthogonalEdgeStyle;rounded=0;orthogonalLoop=1;jettySize=auto;html=1;entryX=0;entryY=0.5;entryDx=0;entryDy=0;fontSize=11;" parent="1" source="LI_20KDizkYBDGB6hoM7-32" target="LI_20KDizkYBDGB6hoM7-33" edge="1">
          <mxGeometry relative="1" as="geometry" />
        </mxCell>
        <mxCell id="LI_20KDizkYBDGB6hoM7-32" value="&lt;b&gt;Client&lt;/b&gt;" style="rounded=0;whiteSpace=wrap;html=1;align=center;verticalAlign=middle;" parent="1" vertex="1">
          <mxGeometry x="80" y="790" width="110" height="50" as="geometry" />
        </mxCell>
        <mxCell id="LI_20KDizkYBDGB6hoM7-37" style="edgeStyle=orthogonalEdgeStyle;rounded=0;orthogonalLoop=1;jettySize=auto;html=1;entryX=0;entryY=0.5;entryDx=0;entryDy=0;fontSize=11;" parent="1" source="LI_20KDizkYBDGB6hoM7-33" target="LI_20KDizkYBDGB6hoM7-36" edge="1">
          <mxGeometry relative="1" as="geometry" />
        </mxCell>
        <mxCell id="LI_20KDizkYBDGB6hoM7-33" value="&lt;b&gt;router&lt;/b&gt;" style="rounded=0;whiteSpace=wrap;html=1;align=left;verticalAlign=top;" parent="1" vertex="1">
          <mxGeometry x="370" y="790" width="140" height="50" as="geometry" />
        </mxCell>
        <mxCell id="LI_20KDizkYBDGB6hoM7-35" value="&lt;span style=&quot;color: rgb(0 , 0 , 0) ; font-family: &amp;#34;helvetica&amp;#34; ; font-size: 11px ; font-style: normal ; font-weight: 400 ; letter-spacing: normal ; text-align: left ; text-indent: 0px ; text-transform: none ; word-spacing: 0px ; background-color: rgb(248 , 249 , 250) ; display: inline ; float: none&quot;&gt;{&#39;jsonrpc&#39;: &#39;2.0&#39;,&amp;nbsp;&lt;/span&gt;&lt;br style=&quot;color: rgb(0 , 0 , 0) ; font-family: &amp;#34;helvetica&amp;#34; ; font-size: 11px ; font-style: normal ; font-weight: 400 ; letter-spacing: normal ; text-align: left ; text-indent: 0px ; text-transform: none ; word-spacing: 0px ; background-color: rgb(248 , 249 , 250)&quot;&gt;&lt;span style=&quot;color: rgb(0 , 0 , 0) ; font-family: &amp;#34;helvetica&amp;#34; ; font-size: 11px ; font-style: normal ; font-weight: 400 ; letter-spacing: normal ; text-align: left ; text-indent: 0px ; text-transform: none ; word-spacing: 0px ; background-color: rgb(248 , 249 , 250) ; display: inline ; float: none&quot;&gt;&amp;nbsp;&#39;method&#39;: &#39;MockProvider.search&#39;,&lt;/span&gt;&lt;br style=&quot;color: rgb(0 , 0 , 0) ; font-family: &amp;#34;helvetica&amp;#34; ; font-size: 11px ; font-style: normal ; font-weight: 400 ; letter-spacing: normal ; text-align: left ; text-indent: 0px ; text-transform: none ; word-spacing: 0px ; background-color: rgb(248 , 249 , 250)&quot;&gt;&lt;span style=&quot;color: rgb(0 , 0 , 0) ; font-family: &amp;#34;helvetica&amp;#34; ; font-size: 11px ; font-style: normal ; font-weight: 400 ; letter-spacing: normal ; text-align: left ; text-indent: 0px ; text-transform: none ; word-spacing: 0px ; background-color: rgb(248 , 249 , 250) ; display: inline ; float: none&quot;&gt;&amp;nbsp;&#39;params&#39;: {&#39;category&#39;: &#39;symbol&#39;, &#39;name&#39;: &#39;A005930&#39;&lt;/span&gt;&lt;span style=&quot;color: rgb(0 , 0 , 0) ; font-family: &amp;#34;helvetica&amp;#34; ; font-size: 11px ; font-style: normal ; font-weight: 400 ; letter-spacing: normal ; text-align: left ; text-indent: 0px ; text-transform: none ; word-spacing: 0px ; background-color: rgb(248 , 249 , 250) ; display: inline ; float: none&quot;&gt;},&lt;/span&gt;&lt;br style=&quot;color: rgb(0 , 0 , 0) ; font-family: &amp;#34;helvetica&amp;#34; ; font-size: 11px ; font-style: normal ; font-weight: 400 ; letter-spacing: normal ; text-align: left ; text-indent: 0px ; text-transform: none ; word-spacing: 0px ; background-color: rgb(248 , 249 , 250)&quot;&gt;&lt;span style=&quot;color: rgb(0 , 0 , 0) ; font-family: &amp;#34;helvetica&amp;#34; ; font-size: 11px ; font-style: normal ; font-weight: 400 ; letter-spacing: normal ; text-align: left ; text-indent: 0px ; text-transform: none ; word-spacing: 0px ; background-color: rgb(248 , 249 , 250) ; display: inline ; float: none&quot;&gt;&amp;nbsp;&#39;id&#39;: uuid}&lt;/span&gt;" style="text;whiteSpace=wrap;html=1;fontSize=11;" parent="1" vertex="1">
          <mxGeometry x="190" y="730" width="210" height="60" as="geometry" />
        </mxCell>
        <mxCell id="LI_20KDizkYBDGB6hoM7-36" value="&lt;b&gt;Provider&lt;/b&gt;" style="rounded=0;whiteSpace=wrap;html=1;align=center;verticalAlign=middle;" parent="1" vertex="1">
          <mxGeometry x="610" y="790" width="110" height="50" as="geometry" />
        </mxCell>
        <mxCell id="LI_20KDizkYBDGB6hoM7-38" value="&lt;b style=&quot;font-size: 10px;&quot;&gt;MockProvider&lt;/b&gt;" style="rounded=0;whiteSpace=wrap;html=1;align=center;verticalAlign=middle;fontSize=10;" parent="1" vertex="1">
          <mxGeometry x="440" y="790" width="70" height="20" as="geometry" />
        </mxCell>
        <mxCell id="LI_20KDizkYBDGB6hoM7-39" value="&lt;b style=&quot;font-size: 10px;&quot;&gt;MockProvider&lt;/b&gt;" style="rounded=0;whiteSpace=wrap;html=1;align=center;verticalAlign=middle;fontSize=10;" parent="1" vertex="1">
          <mxGeometry x="440" y="810" width="70" height="20" as="geometry" />
        </mxCell>
        <mxCell id="LI_20KDizkYBDGB6hoM7-40" value="&lt;span style=&quot;color: rgb(0 , 0 , 0) ; font-family: &amp;#34;helvetica&amp;#34; ; font-size: 11px ; font-style: normal ; font-weight: 400 ; letter-spacing: normal ; text-align: left ; text-indent: 0px ; text-transform: none ; word-spacing: 0px ; background-color: rgb(248 , 249 , 250) ; display: inline ; float: none&quot;&gt;{&#39;jsonrpc&#39;: &#39;2.0&#39;,&amp;nbsp;&lt;/span&gt;&lt;br style=&quot;color: rgb(0 , 0 , 0) ; font-family: &amp;#34;helvetica&amp;#34; ; font-size: 11px ; font-style: normal ; font-weight: 400 ; letter-spacing: normal ; text-align: left ; text-indent: 0px ; text-transform: none ; word-spacing: 0px ; background-color: rgb(248 , 249 , 250)&quot;&gt;&lt;span style=&quot;color: rgb(0 , 0 , 0) ; font-family: &amp;#34;helvetica&amp;#34; ; font-size: 11px ; font-style: normal ; font-weight: 400 ; letter-spacing: normal ; text-align: left ; text-indent: 0px ; text-transform: none ; word-spacing: 0px ; background-color: rgb(248 , 249 , 250) ; display: inline ; float: none&quot;&gt;&amp;nbsp;&#39;method&#39;: &#39;MockProvider.search&#39;,&lt;/span&gt;&lt;br style=&quot;color: rgb(0 , 0 , 0) ; font-family: &amp;#34;helvetica&amp;#34; ; font-size: 11px ; font-style: normal ; font-weight: 400 ; letter-spacing: normal ; text-align: left ; text-indent: 0px ; text-transform: none ; word-spacing: 0px ; background-color: rgb(248 , 249 , 250)&quot;&gt;&lt;span style=&quot;color: rgb(0 , 0 , 0) ; font-family: &amp;#34;helvetica&amp;#34; ; font-size: 11px ; font-style: normal ; font-weight: 400 ; letter-spacing: normal ; text-align: left ; text-indent: 0px ; text-transform: none ; word-spacing: 0px ; background-color: rgb(248 , 249 , 250) ; display: inline ; float: none&quot;&gt;&amp;nbsp;&#39;params&#39;: {&#39;symbol&#39;: &#39;A005930&#39;&lt;/span&gt;&lt;span style=&quot;color: rgb(0 , 0 , 0) ; font-family: &amp;#34;helvetica&amp;#34; ; font-size: 11px ; font-style: normal ; font-weight: 400 ; letter-spacing: normal ; text-align: left ; text-indent: 0px ; text-transform: none ; word-spacing: 0px ; background-color: rgb(248 , 249 , 250) ; display: inline ; float: none&quot;&gt;},&lt;/span&gt;&lt;br style=&quot;color: rgb(0 , 0 , 0) ; font-family: &amp;#34;helvetica&amp;#34; ; font-size: 11px ; font-style: normal ; font-weight: 400 ; letter-spacing: normal ; text-align: left ; text-indent: 0px ; text-transform: none ; word-spacing: 0px ; background-color: rgb(248 , 249 , 250)&quot;&gt;&lt;span style=&quot;color: rgb(0 , 0 , 0) ; font-family: &amp;#34;helvetica&amp;#34; ; font-size: 11px ; font-style: normal ; font-weight: 400 ; letter-spacing: normal ; text-align: left ; text-indent: 0px ; text-transform: none ; word-spacing: 0px ; background-color: rgb(248 , 249 , 250) ; display: inline ; float: none&quot;&gt;&amp;nbsp;&#39;id&#39;: uuid}&lt;/span&gt;" style="text;whiteSpace=wrap;html=1;fontSize=11;" parent="1" vertex="1">
          <mxGeometry x="490" y="720" width="210" height="60" as="geometry" />
        </mxCell>
        <mxCell id="LI_20KDizkYBDGB6hoM7-41" value="&lt;span style=&quot;color: rgb(0 , 0 , 0) ; font-family: &amp;#34;helvetica&amp;#34; ; font-size: 11px ; font-style: normal ; font-weight: 400 ; letter-spacing: normal ; text-align: left ; text-indent: 0px ; text-transform: none ; word-spacing: 0px ; background-color: rgb(248 , 249 , 250) ; display: inline ; float: none&quot;&gt;{&#39;jsonrpc&#39;: &#39;2.0&#39;,&amp;nbsp;&lt;/span&gt;&lt;br style=&quot;color: rgb(0 , 0 , 0) ; font-family: &amp;#34;helvetica&amp;#34; ; font-size: 11px ; font-style: normal ; font-weight: 400 ; letter-spacing: normal ; text-align: left ; text-indent: 0px ; text-transform: none ; word-spacing: 0px ; background-color: rgb(248 , 249 , 250)&quot;&gt;&lt;span style=&quot;color: rgb(0 , 0 , 0) ; font-family: &amp;#34;helvetica&amp;#34; ; font-size: 11px ; font-style: normal ; font-weight: 400 ; letter-spacing: normal ; text-align: left ; text-indent: 0px ; text-transform: none ; word-spacing: 0px ; background-color: rgb(248 , 249 , 250) ; display: inline ; float: none&quot;&gt;&amp;nbsp;&#39;result&#39;: {&quot;type&quot;: &quot;stock&quot;, &quot;broker&quot;: &quot;cybos&quot;, &quot;symbol&quot;: &quot;A005930&quot;, &quot;desc&quot;: &quot;xx&quot;,&lt;br&gt;&quot;object&quot;: &quot;MockProvider&quot;&lt;br&gt;&quot;query&quot;: &quot;get_kline&quot;,&lt;br&gt;&quot;realtime&quot;: &quot;watch_kline&quot;}&amp;nbsp;&lt;/span&gt;&lt;span style=&quot;color: rgb(0 , 0 , 0) ; font-family: &amp;#34;helvetica&amp;#34; ; font-size: 11px ; font-style: normal ; font-weight: 400 ; letter-spacing: normal ; text-align: left ; text-indent: 0px ; text-transform: none ; word-spacing: 0px ; background-color: rgb(248 , 249 , 250) ; display: inline ; float: none&quot;&gt;,&lt;/span&gt;&lt;br style=&quot;color: rgb(0 , 0 , 0) ; font-family: &amp;#34;helvetica&amp;#34; ; font-size: 11px ; font-style: normal ; font-weight: 400 ; letter-spacing: normal ; text-align: left ; text-indent: 0px ; text-transform: none ; word-spacing: 0px ; background-color: rgb(248 , 249 , 250)&quot;&gt;&lt;span style=&quot;color: rgb(0 , 0 , 0) ; font-family: &amp;#34;helvetica&amp;#34; ; font-size: 11px ; font-style: normal ; font-weight: 400 ; letter-spacing: normal ; text-align: left ; text-indent: 0px ; text-transform: none ; word-spacing: 0px ; background-color: rgb(248 , 249 , 250) ; display: inline ; float: none&quot;&gt;&amp;nbsp;&#39;id&#39;: uuid}&lt;/span&gt;" style="text;whiteSpace=wrap;html=1;fontSize=11;" parent="1" vertex="1">
          <mxGeometry x="490" y="850" width="210" height="60" as="geometry" />
        </mxCell>
        <mxCell id="LI_20KDizkYBDGB6hoM7-42" value="&lt;span style=&quot;color: rgb(0 , 0 , 0) ; font-family: &amp;#34;helvetica&amp;#34; ; font-size: 11px ; font-style: normal ; font-weight: 400 ; letter-spacing: normal ; text-align: left ; text-indent: 0px ; text-transform: none ; word-spacing: 0px ; background-color: rgb(248 , 249 , 250) ; display: inline ; float: none&quot;&gt;{&#39;jsonrpc&#39;: &#39;2.0&#39;,&amp;nbsp;&lt;/span&gt;&lt;br style=&quot;color: rgb(0 , 0 , 0) ; font-family: &amp;#34;helvetica&amp;#34; ; font-size: 11px ; font-style: normal ; font-weight: 400 ; letter-spacing: normal ; text-align: left ; text-indent: 0px ; text-transform: none ; word-spacing: 0px ; background-color: rgb(248 , 249 , 250)&quot;&gt;&lt;span style=&quot;color: rgb(0 , 0 , 0) ; font-family: &amp;#34;helvetica&amp;#34; ; font-size: 11px ; font-style: normal ; font-weight: 400 ; letter-spacing: normal ; text-align: left ; text-indent: 0px ; text-transform: none ; word-spacing: 0px ; background-color: rgb(248 , 249 , 250) ; display: inline ; float: none&quot;&gt;&amp;nbsp;&#39;result&#39;: {&quot;type&quot;: &quot;stock&quot;, &quot;broker&quot;: &quot;cybos&quot;, &quot;symbol&quot;: &quot;A005930&quot;, &quot;desc&quot;: &quot;xx&quot;, &quot;object&quot;: &quot;MockProvider&quot;&lt;br&gt;&quot;query&quot;: &quot;get_kline&quot;,&lt;br&gt;&quot;realtime&quot;: &quot;watch_kline&quot;}&amp;nbsp;&lt;/span&gt;&lt;span style=&quot;color: rgb(0 , 0 , 0) ; font-family: &amp;#34;helvetica&amp;#34; ; font-size: 11px ; font-style: normal ; font-weight: 400 ; letter-spacing: normal ; text-align: left ; text-indent: 0px ; text-transform: none ; word-spacing: 0px ; background-color: rgb(248 , 249 , 250) ; display: inline ; float: none&quot;&gt;,&lt;/span&gt;&lt;br style=&quot;color: rgb(0 , 0 , 0) ; font-family: &amp;#34;helvetica&amp;#34; ; font-size: 11px ; font-style: normal ; font-weight: 400 ; letter-spacing: normal ; text-align: left ; text-indent: 0px ; text-transform: none ; word-spacing: 0px ; background-color: rgb(248 , 249 , 250)&quot;&gt;&lt;span style=&quot;color: rgb(0 , 0 , 0) ; font-family: &amp;#34;helvetica&amp;#34; ; font-size: 11px ; font-style: normal ; font-weight: 400 ; letter-spacing: normal ; text-align: left ; text-indent: 0px ; text-transform: none ; word-spacing: 0px ; background-color: rgb(248 , 249 , 250) ; display: inline ; float: none&quot;&gt;&amp;nbsp;&#39;id&#39;: uuid}&lt;/span&gt;" style="text;whiteSpace=wrap;html=1;fontSize=11;" parent="1" vertex="1">
          <mxGeometry x="170" y="850" width="210" height="60" as="geometry" />
        </mxCell>
        <mxCell id="LI_20KDizkYBDGB6hoM7-43" value="" style="endArrow=classic;html=1;fontSize=10;entryX=1.025;entryY=0.894;entryDx=0;entryDy=0;entryPerimeter=0;" parent="1" target="LI_20KDizkYBDGB6hoM7-33" edge="1">
          <mxGeometry width="50" height="50" relative="1" as="geometry">
            <mxPoint x="611" y="835" as="sourcePoint" />
            <mxPoint x="750" y="820" as="targetPoint" />
          </mxGeometry>
        </mxCell>
        <mxCell id="LI_20KDizkYBDGB6hoM7-44" value="" style="endArrow=classic;html=1;fontSize=10;entryX=1;entryY=1;entryDx=0;entryDy=0;exitX=0;exitY=1;exitDx=0;exitDy=0;" parent="1" edge="1">
          <mxGeometry width="50" height="50" relative="1" as="geometry">
            <mxPoint x="370" y="834" as="sourcePoint" />
            <mxPoint x="190" y="834" as="targetPoint" />
          </mxGeometry>
        </mxCell>
        <mxCell id="LI_20KDizkYBDGB6hoM7-47" style="edgeStyle=orthogonalEdgeStyle;rounded=0;orthogonalLoop=1;jettySize=auto;html=1;entryX=0;entryY=0.5;entryDx=0;entryDy=0;fontSize=10;" parent="1" source="LI_20KDizkYBDGB6hoM7-45" target="LI_20KDizkYBDGB6hoM7-46" edge="1">
          <mxGeometry relative="1" as="geometry" />
        </mxCell>
        <mxCell id="LI_20KDizkYBDGB6hoM7-45" value="&lt;b&gt;Client&lt;/b&gt;" style="rounded=0;whiteSpace=wrap;html=1;align=center;verticalAlign=middle;" parent="1" vertex="1">
          <mxGeometry x="80" y="1000" width="110" height="50" as="geometry" />
        </mxCell>
        <mxCell id="LI_20KDizkYBDGB6hoM7-46" value="&lt;b&gt;router&lt;/b&gt;" style="rounded=0;whiteSpace=wrap;html=1;align=left;verticalAlign=top;" parent="1" vertex="1">
          <mxGeometry x="370" y="1000" width="140" height="50" as="geometry" />
        </mxCell>
        <mxCell id="LI_20KDizkYBDGB6hoM7-48" value="&lt;font face=&quot;helvetica&quot;&gt;How to get price query / subscribe realtime data?&lt;br&gt;&lt;br&gt;1) search 시에 query, realtime method return&lt;br&gt;&amp;nbsp;- 이래나 저래나, 일단 object name 은 return 해야 함, 추가로 method 전달,&lt;br&gt;&amp;nbsp;- 객체 이름만 return 시에는 추가되는 method 들을&amp;nbsp;&lt;br&gt;&lt;br&gt;&lt;br&gt;2) 공통된 method 를 구현(search 동일)&lt;br&gt;하나의 객체에 필요한 모든 것을 구현해야 하므로, 객체별로 구현하는 데 어려움&lt;br&gt;&lt;br&gt;&lt;/font&gt;" style="text;whiteSpace=wrap;html=1;fontSize=11;" parent="1" vertex="1">
          <mxGeometry x="617" y="970" width="210" height="200" as="geometry" />
        </mxCell>
        <mxCell id="LI_20KDizkYBDGB6hoM7-49" value="&lt;span style=&quot;color: rgb(0 , 0 , 0) ; font-family: &amp;#34;helvetica&amp;#34; ; font-size: 11px ; font-style: normal ; font-weight: 400 ; letter-spacing: normal ; text-align: left ; text-indent: 0px ; text-transform: none ; word-spacing: 0px ; background-color: rgb(248 , 249 , 250) ; display: inline ; float: none&quot;&gt;{&quot;type&quot;: &quot;stock&quot;,&lt;br&gt;&amp;nbsp;&quot;broker&quot;: &quot;cybos&quot;,&lt;br&gt;&amp;nbsp;&quot;symbol&quot;: &quot;A005930&quot;,&lt;br&gt;&amp;nbsp;&quot;desc&quot;: &quot;xx&quot;}&lt;/span&gt;" style="text;whiteSpace=wrap;html=1;fontSize=10;" parent="1" vertex="1">
          <mxGeometry x="200" y="960" width="130" height="60" as="geometry" />
        </mxCell>
        <mxCell id="LI_20KDizkYBDGB6hoM7-51" value="&lt;font face=&quot;helvetica&quot;&gt;필요한 Set 을 만들어,&lt;br&gt;search 시에 return 하는 것으로..&lt;br&gt;&lt;br&gt;&quot;price_query&quot;: &quot;MockProvider.get_kline&quot;&lt;br&gt;&quot;price_realtime&quot;: &quot;MockProvider.watch_..&quot;&lt;br&gt;&quot;bidask_realtime&quot;&lt;br&gt;&quot;financial_statment&quot;:&lt;br&gt;&quot;&lt;br&gt;&lt;br&gt;&lt;/font&gt;" style="text;whiteSpace=wrap;html=1;fontSize=11;" parent="1" vertex="1">
          <mxGeometry x="300" y="1100" width="210" height="200" as="geometry" />
        </mxCell>
        <mxCell id="Aw0N2iSUgDGMIQhZ0OBn-4" style="edgeStyle=orthogonalEdgeStyle;rounded=0;orthogonalLoop=1;jettySize=auto;html=1;entryX=0;entryY=0.5;entryDx=0;entryDy=0;" parent="1" source="Aw0N2iSUgDGMIQhZ0OBn-1" target="Aw0N2iSUgDGMIQhZ0OBn-2" edge="1">
          <mxGeometry relative="1" as="geometry" />
        </mxCell>
        <mxCell id="Aw0N2iSUgDGMIQhZ0OBn-1" value="&lt;b&gt;Client&lt;/b&gt;" style="rounded=0;whiteSpace=wrap;html=1;align=center;verticalAlign=middle;" parent="1" vertex="1">
          <mxGeometry x="80" y="1290" width="110" height="50" as="geometry" />
        </mxCell>
        <mxCell id="Aw0N2iSUgDGMIQhZ0OBn-2" value="&lt;b&gt;router&lt;/b&gt;" style="rounded=0;whiteSpace=wrap;html=1;align=left;verticalAlign=top;" parent="1" vertex="1">
          <mxGeometry x="370" y="1290" width="140" height="50" as="geometry" />
        </mxCell>
        <mxCell id="Aw0N2iSUgDGMIQhZ0OBn-3" value="&lt;b&gt;signal&lt;br&gt;provider&lt;br&gt;&lt;/b&gt;" style="rounded=0;whiteSpace=wrap;html=1;align=center;verticalAlign=middle;" parent="1" vertex="1">
          <mxGeometry x="610" y="1290" width="110" height="50" as="geometry" />
        </mxCell>
        <mxCell id="Aw0N2iSUgDGMIQhZ0OBn-5" value="&lt;span style=&quot;color: rgb(0 , 0 , 0) ; font-family: &amp;#34;helvetica&amp;#34; ; font-size: 11px ; font-style: normal ; font-weight: 400 ; letter-spacing: normal ; text-align: left ; text-indent: 0px ; text-transform: none ; word-spacing: 0px ; background-color: rgb(248 , 249 , 250) ; display: inline ; float: none&quot;&gt;{&#39;jsonrpc&#39;: &#39;2.0&#39;,&amp;nbsp;&lt;/span&gt;&lt;br style=&quot;color: rgb(0 , 0 , 0) ; font-family: &amp;#34;helvetica&amp;#34; ; font-size: 11px ; font-style: normal ; font-weight: 400 ; letter-spacing: normal ; text-align: left ; text-indent: 0px ; text-transform: none ; word-spacing: 0px ; background-color: rgb(248 , 249 , 250)&quot;&gt;&lt;span style=&quot;color: rgb(0 , 0 , 0) ; font-family: &amp;#34;helvetica&amp;#34; ; font-size: 11px ; font-style: normal ; font-weight: 400 ; letter-spacing: normal ; text-align: left ; text-indent: 0px ; text-transform: none ; word-spacing: 0px ; background-color: rgb(248 , 249 , 250) ; display: inline ; float: none&quot;&gt;&amp;nbsp;&#39;method&#39;: &#39;MockProvider.search&#39;,&lt;/span&gt;&lt;br style=&quot;color: rgb(0 , 0 , 0) ; font-family: &amp;#34;helvetica&amp;#34; ; font-size: 11px ; font-style: normal ; font-weight: 400 ; letter-spacing: normal ; text-align: left ; text-indent: 0px ; text-transform: none ; word-spacing: 0px ; background-color: rgb(248 , 249 , 250)&quot;&gt;&lt;span style=&quot;color: rgb(0 , 0 , 0) ; font-family: &amp;#34;helvetica&amp;#34; ; font-size: 11px ; font-style: normal ; font-weight: 400 ; letter-spacing: normal ; text-align: left ; text-indent: 0px ; text-transform: none ; word-spacing: 0px ; background-color: rgb(248 , 249 , 250) ; display: inline ; float: none&quot;&gt;&amp;nbsp;&#39;params&#39;: {&#39;category&#39;: &#39;signal&#39;, &#39;name&#39;: &#39;mavg&#39;&lt;/span&gt;&lt;span style=&quot;color: rgb(0 , 0 , 0) ; font-family: &amp;#34;helvetica&amp;#34; ; font-size: 11px ; font-style: normal ; font-weight: 400 ; letter-spacing: normal ; text-align: left ; text-indent: 0px ; text-transform: none ; word-spacing: 0px ; background-color: rgb(248 , 249 , 250) ; display: inline ; float: none&quot;&gt;},&lt;/span&gt;&lt;br style=&quot;color: rgb(0 , 0 , 0) ; font-family: &amp;#34;helvetica&amp;#34; ; font-size: 11px ; font-style: normal ; font-weight: 400 ; letter-spacing: normal ; text-align: left ; text-indent: 0px ; text-transform: none ; word-spacing: 0px ; background-color: rgb(248 , 249 , 250)&quot;&gt;&lt;span style=&quot;color: rgb(0 , 0 , 0) ; font-family: &amp;#34;helvetica&amp;#34; ; font-size: 11px ; font-style: normal ; font-weight: 400 ; letter-spacing: normal ; text-align: left ; text-indent: 0px ; text-transform: none ; word-spacing: 0px ; background-color: rgb(248 , 249 , 250) ; display: inline ; float: none&quot;&gt;&amp;nbsp;&#39;id&#39;: uuid}&lt;/span&gt;" style="text;whiteSpace=wrap;html=1;fontSize=11;" parent="1" vertex="1">
          <mxGeometry x="170" y="1220" width="210" height="60" as="geometry" />
        </mxCell>
        <mxCell id="Aw0N2iSUgDGMIQhZ0OBn-6" value="&lt;b style=&quot;font-size: 10px&quot;&gt;MAVG&lt;/b&gt;" style="rounded=0;whiteSpace=wrap;html=1;align=center;verticalAlign=middle;fontSize=10;" parent="1" vertex="1">
          <mxGeometry x="440" y="1290" width="70" height="20" as="geometry" />
        </mxCell>
        <mxCell id="Aw0N2iSUgDGMIQhZ0OBn-7" value="&lt;font face=&quot;helvetica&quot;&gt;1) history data&lt;br&gt;&lt;br&gt;&lt;br&gt;&lt;br&gt;2) real data&lt;br&gt;2-1) Client 에서 Subscribe 한 데이터 직접 signal provider 에 전달&lt;br&gt;&amp;nbsp;- signal 을 5개 쓴다면, 모두 req/res 로 realtime 전달해야 되는 문제&lt;br&gt;&lt;br&gt;2-2) signal provider 에서 직접?&lt;br&gt;&amp;nbsp;- 직접하는 경우 simulation control 이 가능하지 않음&lt;br&gt;&lt;br&gt;결론: signal provider 는 동시 2개 이상 사용할 수 없기 때문에, 다른 방안 필요&lt;br&gt;&lt;br&gt;provider 자체에서 vendor:symbol 로 개별 관리는 가능&lt;br&gt;interval 별로는?&lt;br&gt;&lt;br&gt;&lt;br&gt;&lt;/font&gt;" style="text;whiteSpace=wrap;html=1;fontSize=11;" parent="1" vertex="1">
          <mxGeometry x="450" y="1360" width="210" height="270" as="geometry" />
        </mxCell>
      </root>
    </mxGraphModel>
  </diagram>
  <diagram id="1WQLB9VIaN6oB_A_pNtn" name="Scenario">
    <mxGraphModel dx="1422" dy="794" grid="1" gridSize="10" guides="1" tooltips="1" connect="1" arrows="1" fold="1" page="1" pageScale="1" pageWidth="1169" pageHeight="827" math="0" shadow="0">
      <root>
        <mxCell id="sB54-BS0w_xD0eevMKqK-0" />
        <mxCell id="sB54-BS0w_xD0eevMKqK-1" parent="sB54-BS0w_xD0eevMKqK-0" />
        <mxCell id="sB54-BS0w_xD0eevMKqK-2" value="1. Run Client&lt;br&gt;2. Search Symbol&lt;br&gt;3. Add Symbol&lt;br&gt;4. Click Symbol&lt;br&gt;5. Watch Chart(Candle)&lt;br&gt;* Realtime&lt;br&gt;6. Change interval&lt;br&gt;* Set Limit Datetime&lt;br&gt;6. Add Indicator(MAVG)&lt;br&gt;7. Add Indicator(EHLER)&lt;br&gt;8. Save Current Environment" style="text;html=1;strokeColor=none;fillColor=none;align=left;verticalAlign=top;whiteSpace=wrap;rounded=0;" vertex="1" parent="sB54-BS0w_xD0eevMKqK-1">
          <mxGeometry x="960" width="190" height="170" as="geometry" />
        </mxCell>
        <mxCell id="UoUW56dW-22rG_aw_v2Q-2" value="search" style="edgeStyle=orthogonalEdgeStyle;rounded=0;orthogonalLoop=1;jettySize=auto;html=1;entryX=0;entryY=0.5;entryDx=0;entryDy=0;" edge="1" parent="sB54-BS0w_xD0eevMKqK-1" source="UoUW56dW-22rG_aw_v2Q-0" target="UoUW56dW-22rG_aw_v2Q-1">
          <mxGeometry relative="1" as="geometry" />
        </mxCell>
        <mxCell id="UoUW56dW-22rG_aw_v2Q-0" value="&lt;b&gt;Client&lt;/b&gt;" style="rounded=0;whiteSpace=wrap;html=1;align=center;verticalAlign=middle;" vertex="1" parent="sB54-BS0w_xD0eevMKqK-1">
          <mxGeometry x="160" y="100" width="110" height="50" as="geometry" />
        </mxCell>
        <mxCell id="UoUW56dW-22rG_aw_v2Q-1" value="&lt;b&gt;router&lt;/b&gt;" style="rounded=0;whiteSpace=wrap;html=1;align=center;verticalAlign=middle;" vertex="1" parent="sB54-BS0w_xD0eevMKqK-1">
          <mxGeometry x="370" y="100" width="110" height="50" as="geometry" />
        </mxCell>
        <mxCell id="UoUW56dW-22rG_aw_v2Q-3" value="&lt;b&gt;Client&lt;/b&gt;" style="rounded=0;whiteSpace=wrap;html=1;align=center;verticalAlign=middle;" vertex="1" parent="sB54-BS0w_xD0eevMKqK-1">
          <mxGeometry x="160" y="190" width="110" height="50" as="geometry" />
        </mxCell>
        <mxCell id="UoUW56dW-22rG_aw_v2Q-5" value="add symbol" style="edgeStyle=orthogonalEdgeStyle;rounded=0;orthogonalLoop=1;jettySize=auto;html=1;entryX=1;entryY=0.5;entryDx=0;entryDy=0;" edge="1" parent="sB54-BS0w_xD0eevMKqK-1" source="UoUW56dW-22rG_aw_v2Q-4" target="UoUW56dW-22rG_aw_v2Q-3">
          <mxGeometry relative="1" as="geometry" />
        </mxCell>
        <mxCell id="UoUW56dW-22rG_aw_v2Q-4" value="&lt;b&gt;router&lt;/b&gt;" style="rounded=0;whiteSpace=wrap;html=1;align=center;verticalAlign=middle;" vertex="1" parent="sB54-BS0w_xD0eevMKqK-1">
          <mxGeometry x="370" y="190" width="110" height="50" as="geometry" />
        </mxCell>
        <mxCell id="UoUW56dW-22rG_aw_v2Q-9" value="get(interval)" style="edgeStyle=orthogonalEdgeStyle;rounded=0;orthogonalLoop=1;jettySize=auto;html=1;entryX=0;entryY=0.5;entryDx=0;entryDy=0;" edge="1" parent="sB54-BS0w_xD0eevMKqK-1" source="UoUW56dW-22rG_aw_v2Q-6" target="UoUW56dW-22rG_aw_v2Q-8">
          <mxGeometry relative="1" as="geometry" />
        </mxCell>
        <mxCell id="UoUW56dW-22rG_aw_v2Q-6" value="&lt;b&gt;Client&lt;/b&gt;" style="rounded=0;whiteSpace=wrap;html=1;align=center;verticalAlign=middle;" vertex="1" parent="sB54-BS0w_xD0eevMKqK-1">
          <mxGeometry x="160" y="280" width="110" height="50" as="geometry" />
        </mxCell>
        <mxCell id="UoUW56dW-22rG_aw_v2Q-7" value="click symbol" style="endArrow=classic;html=1;entryX=0;entryY=0.5;entryDx=0;entryDy=0;" edge="1" parent="sB54-BS0w_xD0eevMKqK-1" target="UoUW56dW-22rG_aw_v2Q-6">
          <mxGeometry width="50" height="50" relative="1" as="geometry">
            <mxPoint x="60" y="305" as="sourcePoint" />
            <mxPoint x="110" y="280" as="targetPoint" />
          </mxGeometry>
        </mxCell>
        <mxCell id="UoUW56dW-22rG_aw_v2Q-13" style="edgeStyle=orthogonalEdgeStyle;rounded=0;orthogonalLoop=1;jettySize=auto;html=1;" edge="1" parent="sB54-BS0w_xD0eevMKqK-1" source="UoUW56dW-22rG_aw_v2Q-8">
          <mxGeometry relative="1" as="geometry">
            <mxPoint x="550" y="305" as="targetPoint" />
          </mxGeometry>
        </mxCell>
        <mxCell id="UoUW56dW-22rG_aw_v2Q-8" value="&lt;b&gt;router&lt;/b&gt;" style="rounded=0;whiteSpace=wrap;html=1;align=center;verticalAlign=middle;" vertex="1" parent="sB54-BS0w_xD0eevMKqK-1">
          <mxGeometry x="370" y="280" width="110" height="50" as="geometry" />
        </mxCell>
        <mxCell id="UoUW56dW-22rG_aw_v2Q-10" value="if limit is not set, start watch" style="text;html=1;strokeColor=none;fillColor=none;align=center;verticalAlign=middle;whiteSpace=wrap;rounded=0;" vertex="1" parent="sB54-BS0w_xD0eevMKqK-1">
          <mxGeometry x="250" y="260" width="140" height="20" as="geometry" />
        </mxCell>
        <mxCell id="UoUW56dW-22rG_aw_v2Q-11" value="If limit is set while running,&lt;br&gt;reset all data" style="text;html=1;strokeColor=none;fillColor=none;align=center;verticalAlign=middle;whiteSpace=wrap;rounded=0;" vertex="1" parent="sB54-BS0w_xD0eevMKqK-1">
          <mxGeometry x="200" y="350" width="250" height="20" as="geometry" />
        </mxCell>
        <mxCell id="UoUW56dW-22rG_aw_v2Q-12" value="&lt;b&gt;Provider&lt;/b&gt;" style="rounded=0;whiteSpace=wrap;html=1;align=center;verticalAlign=middle;" vertex="1" parent="sB54-BS0w_xD0eevMKqK-1">
          <mxGeometry x="555" y="280" width="110" height="50" as="geometry" />
        </mxCell>
        <mxCell id="UoUW56dW-22rG_aw_v2Q-14" value="Client shall know how to get realtime / fetch data" style="text;html=1;strokeColor=none;fillColor=none;align=center;verticalAlign=middle;whiteSpace=wrap;rounded=0;" vertex="1" parent="sB54-BS0w_xD0eevMKqK-1">
          <mxGeometry y="172" width="150" height="86" as="geometry" />
        </mxCell>
        <mxCell id="UoUW56dW-22rG_aw_v2Q-16" value="kline process&lt;br&gt;1. client call get (data has type &#39;CPU&quot;, &quot;CP&quot;, &quot;CM&quot;, &#39;UM&#39;, &quot;UP&quot;, &quot;UPO&quot;, &quot;UPOU&quot;&lt;br&gt;2. client start watch candle&lt;br&gt;3. send candle to signal&lt;br&gt;4. send update data to signal to get realtime signal" style="text;html=1;strokeColor=none;fillColor=none;align=left;verticalAlign=top;whiteSpace=wrap;rounded=0;horizontal=1;" vertex="1" parent="sB54-BS0w_xD0eevMKqK-1">
          <mxGeometry x="590" y="75" width="310" height="125" as="geometry" />
        </mxCell>
        <mxCell id="UoUW56dW-22rG_aw_v2Q-20" value="create" style="edgeStyle=orthogonalEdgeStyle;rounded=0;orthogonalLoop=1;jettySize=auto;html=1;entryX=0;entryY=0.5;entryDx=0;entryDy=0;" edge="1" parent="sB54-BS0w_xD0eevMKqK-1" source="UoUW56dW-22rG_aw_v2Q-17" target="UoUW56dW-22rG_aw_v2Q-18">
          <mxGeometry relative="1" as="geometry" />
        </mxCell>
        <mxCell id="UoUW56dW-22rG_aw_v2Q-17" value="&lt;b&gt;Client&lt;/b&gt;" style="rounded=0;whiteSpace=wrap;html=1;align=center;verticalAlign=middle;" vertex="1" parent="sB54-BS0w_xD0eevMKqK-1">
          <mxGeometry x="160" y="400" width="110" height="50" as="geometry" />
        </mxCell>
        <mxCell id="UoUW56dW-22rG_aw_v2Q-21" style="edgeStyle=orthogonalEdgeStyle;rounded=0;orthogonalLoop=1;jettySize=auto;html=1;entryX=0;entryY=0.5;entryDx=0;entryDy=0;" edge="1" parent="sB54-BS0w_xD0eevMKqK-1" source="UoUW56dW-22rG_aw_v2Q-18" target="UoUW56dW-22rG_aw_v2Q-19">
          <mxGeometry relative="1" as="geometry" />
        </mxCell>
        <mxCell id="UoUW56dW-22rG_aw_v2Q-18" value="&lt;b&gt;router&lt;/b&gt;" style="rounded=0;whiteSpace=wrap;html=1;align=center;verticalAlign=middle;" vertex="1" parent="sB54-BS0w_xD0eevMKqK-1">
          <mxGeometry x="370" y="400" width="110" height="50" as="geometry" />
        </mxCell>
        <mxCell id="UoUW56dW-22rG_aw_v2Q-19" value="&lt;b&gt;MAVG&lt;br&gt;Provider&lt;/b&gt;" style="rounded=0;whiteSpace=wrap;html=1;align=left;verticalAlign=top;" vertex="1" parent="sB54-BS0w_xD0eevMKqK-1">
          <mxGeometry x="570" y="355" width="215" height="140" as="geometry" />
        </mxCell>
        <mxCell id="UoUW56dW-22rG_aw_v2Q-23" value="&lt;b&gt;Indicator1&lt;/b&gt;" style="rounded=0;whiteSpace=wrap;html=1;align=center;verticalAlign=middle;" vertex="1" parent="sB54-BS0w_xD0eevMKqK-1">
          <mxGeometry x="585" y="400" width="80" height="40" as="geometry" />
        </mxCell>
        <mxCell id="UoUW56dW-22rG_aw_v2Q-24" value="&lt;b&gt;Indicator2&lt;/b&gt;" style="rounded=0;whiteSpace=wrap;html=1;align=center;verticalAlign=middle;" vertex="1" parent="sB54-BS0w_xD0eevMKqK-1">
          <mxGeometry x="680" y="400" width="80" height="40" as="geometry" />
        </mxCell>
        <mxCell id="UoUW56dW-22rG_aw_v2Q-25" value="Identify by ID" style="text;html=1;strokeColor=none;fillColor=none;align=center;verticalAlign=middle;whiteSpace=wrap;rounded=0;" vertex="1" parent="sB54-BS0w_xD0eevMKqK-1">
          <mxGeometry x="800" y="350" width="150" height="20" as="geometry" />
        </mxCell>
        <mxCell id="UoUW56dW-22rG_aw_v2Q-26" value="until 기입하는 경우,&lt;br&gt;interval 에 맞게 시간 정정" style="text;html=1;strokeColor=none;fillColor=none;align=center;verticalAlign=middle;whiteSpace=wrap;rounded=0;" vertex="1" parent="sB54-BS0w_xD0eevMKqK-1">
          <mxGeometry x="330" width="150" height="86" as="geometry" />
        </mxCell>
        <mxCell id="UoUW56dW-22rG_aw_v2Q-28" value="TR은 어떻게?&lt;br&gt;Client 에 비종속적으로 하는게 좋을 듯 한데&lt;br&gt;Paper TR 도 구현 필요" style="text;html=1;strokeColor=none;fillColor=none;align=left;verticalAlign=middle;whiteSpace=wrap;rounded=0;" vertex="1" parent="sB54-BS0w_xD0eevMKqK-1">
          <mxGeometry x="160" y="495" width="355" height="40" as="geometry" />
        </mxCell>
        <mxCell id="UoUW56dW-22rG_aw_v2Q-31" value="stop signal" style="edgeStyle=orthogonalEdgeStyle;rounded=0;orthogonalLoop=1;jettySize=auto;html=1;entryX=0;entryY=0.5;entryDx=0;entryDy=0;" edge="1" parent="sB54-BS0w_xD0eevMKqK-1" source="UoUW56dW-22rG_aw_v2Q-29" target="UoUW56dW-22rG_aw_v2Q-30">
          <mxGeometry relative="1" as="geometry" />
        </mxCell>
        <mxCell id="UoUW56dW-22rG_aw_v2Q-29" value="&lt;b&gt;Client&lt;/b&gt;" style="rounded=0;whiteSpace=wrap;html=1;align=center;verticalAlign=middle;" vertex="1" parent="sB54-BS0w_xD0eevMKqK-1">
          <mxGeometry x="160" y="570" width="110" height="50" as="geometry" />
        </mxCell>
        <mxCell id="UoUW56dW-22rG_aw_v2Q-33" style="edgeStyle=orthogonalEdgeStyle;rounded=0;orthogonalLoop=1;jettySize=auto;html=1;entryX=0;entryY=0.5;entryDx=0;entryDy=0;" edge="1" parent="sB54-BS0w_xD0eevMKqK-1" source="UoUW56dW-22rG_aw_v2Q-30" target="UoUW56dW-22rG_aw_v2Q-32">
          <mxGeometry relative="1" as="geometry" />
        </mxCell>
        <mxCell id="UoUW56dW-22rG_aw_v2Q-37" style="edgeStyle=orthogonalEdgeStyle;rounded=0;orthogonalLoop=1;jettySize=auto;html=1;entryX=0.5;entryY=0;entryDx=0;entryDy=0;" edge="1" parent="sB54-BS0w_xD0eevMKqK-1" source="UoUW56dW-22rG_aw_v2Q-30" target="UoUW56dW-22rG_aw_v2Q-35">
          <mxGeometry relative="1" as="geometry" />
        </mxCell>
        <mxCell id="UoUW56dW-22rG_aw_v2Q-30" value="&lt;b&gt;router&lt;/b&gt;" style="rounded=0;whiteSpace=wrap;html=1;align=center;verticalAlign=middle;" vertex="1" parent="sB54-BS0w_xD0eevMKqK-1">
          <mxGeometry x="370" y="570" width="110" height="50" as="geometry" />
        </mxCell>
        <mxCell id="UoUW56dW-22rG_aw_v2Q-32" value="&lt;b&gt;TR Provider&lt;/b&gt;" style="rounded=0;whiteSpace=wrap;html=1;align=center;verticalAlign=middle;" vertex="1" parent="sB54-BS0w_xD0eevMKqK-1">
          <mxGeometry x="580" y="570" width="110" height="50" as="geometry" />
        </mxCell>
        <mxCell id="UoUW56dW-22rG_aw_v2Q-36" style="edgeStyle=orthogonalEdgeStyle;rounded=0;orthogonalLoop=1;jettySize=auto;html=1;entryX=0.5;entryY=1;entryDx=0;entryDy=0;" edge="1" parent="sB54-BS0w_xD0eevMKqK-1" source="UoUW56dW-22rG_aw_v2Q-35" target="UoUW56dW-22rG_aw_v2Q-30">
          <mxGeometry relative="1" as="geometry" />
        </mxCell>
        <mxCell id="UoUW56dW-22rG_aw_v2Q-35" value="&lt;b&gt;TR Plugin&lt;/b&gt;" style="rounded=0;whiteSpace=wrap;html=1;align=center;verticalAlign=middle;" vertex="1" parent="sB54-BS0w_xD0eevMKqK-1">
          <mxGeometry x="320" y="680" width="210" height="110" as="geometry" />
        </mxCell>
        <mxCell id="W-qKgfRW9r_cR09-LsRR-2" style="edgeStyle=orthogonalEdgeStyle;rounded=0;orthogonalLoop=1;jettySize=auto;html=1;entryX=0.5;entryY=0;entryDx=0;entryDy=0;" edge="1" parent="sB54-BS0w_xD0eevMKqK-1" source="W-qKgfRW9r_cR09-LsRR-0" target="W-qKgfRW9r_cR09-LsRR-1">
          <mxGeometry relative="1" as="geometry" />
        </mxCell>
        <mxCell id="W-qKgfRW9r_cR09-LsRR-7" style="edgeStyle=orthogonalEdgeStyle;rounded=0;orthogonalLoop=1;jettySize=auto;html=1;entryX=0.5;entryY=1;entryDx=0;entryDy=0;" edge="1" parent="sB54-BS0w_xD0eevMKqK-1" source="W-qKgfRW9r_cR09-LsRR-0" target="W-qKgfRW9r_cR09-LsRR-6">
          <mxGeometry relative="1" as="geometry" />
        </mxCell>
        <mxCell id="W-qKgfRW9r_cR09-LsRR-0" value="&lt;b&gt;router&lt;/b&gt;" style="rounded=0;whiteSpace=wrap;html=1;align=center;verticalAlign=middle;" vertex="1" parent="sB54-BS0w_xD0eevMKqK-1">
          <mxGeometry x="930" y="520" width="110" height="50" as="geometry" />
        </mxCell>
        <mxCell id="W-qKgfRW9r_cR09-LsRR-3" style="edgeStyle=orthogonalEdgeStyle;rounded=0;orthogonalLoop=1;jettySize=auto;html=1;entryX=0.5;entryY=1;entryDx=0;entryDy=0;" edge="1" parent="sB54-BS0w_xD0eevMKqK-1" source="W-qKgfRW9r_cR09-LsRR-1" target="W-qKgfRW9r_cR09-LsRR-0">
          <mxGeometry relative="1" as="geometry" />
        </mxCell>
        <mxCell id="W-qKgfRW9r_cR09-LsRR-1" value="&lt;b&gt;router&lt;/b&gt;" style="rounded=0;whiteSpace=wrap;html=1;align=center;verticalAlign=middle;" vertex="1" parent="sB54-BS0w_xD0eevMKqK-1">
          <mxGeometry x="930" y="660" width="110" height="50" as="geometry" />
        </mxCell>
        <mxCell id="W-qKgfRW9r_cR09-LsRR-4" value="download Provider / plugins" style="text;html=1;strokeColor=none;fillColor=none;align=center;verticalAlign=middle;whiteSpace=wrap;rounded=0;" vertex="1" parent="sB54-BS0w_xD0eevMKqK-1">
          <mxGeometry x="820" y="570" width="150" height="86" as="geometry" />
        </mxCell>
        <mxCell id="W-qKgfRW9r_cR09-LsRR-5" value="Connect remote router&amp;nbsp;&lt;br&gt;to use remote functions" style="text;html=1;strokeColor=none;fillColor=none;align=center;verticalAlign=middle;whiteSpace=wrap;rounded=0;" vertex="1" parent="sB54-BS0w_xD0eevMKqK-1">
          <mxGeometry x="1010" y="580" width="150" height="18" as="geometry" />
        </mxCell>
        <mxCell id="W-qKgfRW9r_cR09-LsRR-6" value="&lt;b&gt;router manifest server&lt;/b&gt;" style="rounded=0;whiteSpace=wrap;html=1;align=center;verticalAlign=middle;" vertex="1" parent="sB54-BS0w_xD0eevMKqK-1">
          <mxGeometry x="990" y="414" width="110" height="50" as="geometry" />
        </mxCell>
        <mxCell id="W-qKgfRW9r_cR09-LsRR-8" value="Download simulation data" style="text;html=1;strokeColor=none;fillColor=none;align=center;verticalAlign=middle;whiteSpace=wrap;rounded=0;" vertex="1" parent="sB54-BS0w_xD0eevMKqK-1">
          <mxGeometry x="1019" y="618" width="150" height="20" as="geometry" />
        </mxCell>
        <mxCell id="uIzz3oSEyPV2xAoKO7M7-0" value="get ID" style="text;html=1;strokeColor=none;fillColor=none;align=center;verticalAlign=middle;whiteSpace=wrap;rounded=0;" vertex="1" parent="sB54-BS0w_xD0eevMKqK-1">
          <mxGeometry x="245" y="450" width="150" height="20" as="geometry" />
        </mxCell>
      </root>
    </mxGraphModel>
  </diagram>
  <diagram id="N8iA9-ZPzQHQEglump_W" name="App">
    <mxGraphModel dx="1422" dy="794" grid="1" gridSize="10" guides="1" tooltips="1" connect="1" arrows="1" fold="1" page="1" pageScale="1" pageWidth="1169" pageHeight="827" math="0" shadow="0">
      <root>
        <mxCell id="XeL8xISVFl5Ryd4g9eu9-0" />
        <mxCell id="XeL8xISVFl5Ryd4g9eu9-1" parent="XeL8xISVFl5Ryd4g9eu9-0" />
        <mxCell id="XeL8xISVFl5Ryd4g9eu9-2" value="" style="rounded=0;whiteSpace=wrap;html=1;align=left;verticalAlign=top;" vertex="1" parent="XeL8xISVFl5Ryd4g9eu9-1">
          <mxGeometry x="105" y="130" width="400" height="200" as="geometry" />
        </mxCell>
        <mxCell id="XeL8xISVFl5Ryd4g9eu9-3" value="MENU" style="rounded=0;whiteSpace=wrap;html=1;align=left;verticalAlign=top;" vertex="1" parent="XeL8xISVFl5Ryd4g9eu9-1">
          <mxGeometry x="100" y="130" width="90" height="200" as="geometry" />
        </mxCell>
        <mxCell id="XeL8xISVFl5Ryd4g9eu9-4" value="c1" style="rounded=0;whiteSpace=wrap;html=1;align=center;verticalAlign=middle;" vertex="1" parent="XeL8xISVFl5Ryd4g9eu9-1">
          <mxGeometry x="250" y="130" width="130" height="200" as="geometry" />
        </mxCell>
        <mxCell id="XeL8xISVFl5Ryd4g9eu9-5" value="symbols" style="rounded=0;whiteSpace=wrap;html=1;align=center;verticalAlign=middle;" vertex="1" parent="XeL8xISVFl5Ryd4g9eu9-1">
          <mxGeometry x="100" y="160" width="90" height="20" as="geometry" />
        </mxCell>
        <mxCell id="XeL8xISVFl5Ryd4g9eu9-6" value="category" style="rounded=0;whiteSpace=wrap;html=1;align=center;verticalAlign=middle;" vertex="1" parent="XeL8xISVFl5Ryd4g9eu9-1">
          <mxGeometry x="190" y="130" width="60" height="20" as="geometry" />
        </mxCell>
        <mxCell id="XeL8xISVFl5Ryd4g9eu9-8" value="symbols" style="rounded=0;whiteSpace=wrap;html=1;align=center;verticalAlign=middle;" vertex="1" parent="XeL8xISVFl5Ryd4g9eu9-1">
          <mxGeometry x="190" y="150" width="60" height="70" as="geometry" />
        </mxCell>
        <mxCell id="XeL8xISVFl5Ryd4g9eu9-9" value="category" style="rounded=0;whiteSpace=wrap;html=1;align=center;verticalAlign=middle;" vertex="1" parent="XeL8xISVFl5Ryd4g9eu9-1">
          <mxGeometry x="190" y="220" width="60" height="20" as="geometry" />
        </mxCell>
        <mxCell id="XeL8xISVFl5Ryd4g9eu9-10" value="symbols" style="rounded=0;whiteSpace=wrap;html=1;align=center;verticalAlign=middle;" vertex="1" parent="XeL8xISVFl5Ryd4g9eu9-1">
          <mxGeometry x="190" y="240" width="60" height="90" as="geometry" />
        </mxCell>
        <mxCell id="XeL8xISVFl5Ryd4g9eu9-11" value="can show / hide symbols" style="endArrow=classic;html=1;entryX=0.5;entryY=0;entryDx=0;entryDy=0;" edge="1" parent="XeL8xISVFl5Ryd4g9eu9-1" target="XeL8xISVFl5Ryd4g9eu9-6">
          <mxGeometry width="50" height="50" relative="1" as="geometry">
            <mxPoint x="240" y="80" as="sourcePoint" />
            <mxPoint x="290" y="30" as="targetPoint" />
          </mxGeometry>
        </mxCell>
        <mxCell id="XeL8xISVFl5Ryd4g9eu9-12" value="when click symbol" style="text;html=1;strokeColor=none;fillColor=none;align=center;verticalAlign=middle;whiteSpace=wrap;rounded=0;" vertex="1" parent="XeL8xISVFl5Ryd4g9eu9-1">
          <mxGeometry x="210" y="40" width="190" height="20" as="geometry" />
        </mxCell>
        <mxCell id="XeL8xISVFl5Ryd4g9eu9-13" value="by category" style="rounded=0;whiteSpace=wrap;html=1;align=center;verticalAlign=middle;" vertex="1" parent="XeL8xISVFl5Ryd4g9eu9-1">
          <mxGeometry x="100" y="230" width="90" height="20" as="geometry" />
        </mxCell>
        <mxCell id="XeL8xISVFl5Ryd4g9eu9-14" value="news" style="rounded=0;whiteSpace=wrap;html=1;align=center;verticalAlign=middle;" vertex="1" parent="XeL8xISVFl5Ryd4g9eu9-1">
          <mxGeometry x="100" y="280" width="89" height="20" as="geometry" />
        </mxCell>
        <mxCell id="XeL8xISVFl5Ryd4g9eu9-16" value="c2" style="rounded=0;whiteSpace=wrap;html=1;align=center;verticalAlign=middle;" vertex="1" parent="XeL8xISVFl5Ryd4g9eu9-1">
          <mxGeometry x="380" y="130" width="130" height="200" as="geometry" />
        </mxCell>
        <mxCell id="XeL8xISVFl5Ryd4g9eu9-17" value="tabs" style="rounded=0;whiteSpace=wrap;html=1;align=center;verticalAlign=middle;" vertex="1" parent="XeL8xISVFl5Ryd4g9eu9-1">
          <mxGeometry x="250" y="310" width="130" height="20" as="geometry" />
        </mxCell>
        <mxCell id="XeL8xISVFl5Ryd4g9eu9-18" value="TR" style="rounded=0;whiteSpace=wrap;html=1;align=center;verticalAlign=middle;" vertex="1" parent="XeL8xISVFl5Ryd4g9eu9-1">
          <mxGeometry x="250" y="330" width="260" height="80" as="geometry" />
        </mxCell>
        <mxCell id="XeL8xISVFl5Ryd4g9eu9-19" value="tabs" style="rounded=0;whiteSpace=wrap;html=1;align=center;verticalAlign=middle;" vertex="1" parent="XeL8xISVFl5Ryd4g9eu9-1">
          <mxGeometry x="380" y="310" width="130" height="20" as="geometry" />
        </mxCell>
        <mxCell id="XeL8xISVFl5Ryd4g9eu9-21" value="tabs&lt;br&gt;&lt;br&gt;&lt;div style=&quot;text-align: left&quot;&gt;&lt;span&gt;1. news by symbol&lt;/span&gt;&lt;/div&gt;&lt;div style=&quot;text-align: left&quot;&gt;&lt;span&gt;2. foreigner / institution trend&lt;/span&gt;&lt;/div&gt;&lt;div style=&quot;text-align: left&quot;&gt;&lt;span&gt;3. financial statement&lt;/span&gt;&lt;/div&gt;" style="text;html=1;strokeColor=none;fillColor=none;align=center;verticalAlign=middle;whiteSpace=wrap;rounded=0;" vertex="1" parent="XeL8xISVFl5Ryd4g9eu9-1">
          <mxGeometry x="540" y="190" width="190" height="20" as="geometry" />
        </mxCell>
      </root>
    </mxGraphModel>
  </diagram>
  <diagram id="h7LAGhO5DPEbcRxV-CbH" name="Page-4">
    <mxGraphModel dx="3270" dy="1326" grid="1" gridSize="10" guides="1" tooltips="1" connect="1" arrows="1" fold="1" page="1" pageScale="1" pageWidth="1169" pageHeight="827" math="0" shadow="0">
      <root>
        <mxCell id="hViUmRkHO7qMOMjgmf3x-0" />
        <mxCell id="hViUmRkHO7qMOMjgmf3x-1" parent="hViUmRkHO7qMOMjgmf3x-0" />
        <mxCell id="a6yt6d1-OOGEVtC6zJUz-36" value="" style="rounded=0;whiteSpace=wrap;html=1;align=left;" parent="hViUmRkHO7qMOMjgmf3x-1" vertex="1">
          <mxGeometry x="60" y="720" width="840" height="180" as="geometry" />
        </mxCell>
        <mxCell id="a6yt6d1-OOGEVtC6zJUz-0" value="Search options" style="text;html=1;strokeColor=none;fillColor=none;align=center;verticalAlign=middle;whiteSpace=wrap;rounded=0;" parent="hViUmRkHO7qMOMjgmf3x-1" vertex="1">
          <mxGeometry x="100" y="40" width="340" height="40" as="geometry" />
        </mxCell>
        <mxCell id="a6yt6d1-OOGEVtC6zJUz-4" value="Client" style="shape=umlLifeline;perimeter=lifelinePerimeter;whiteSpace=wrap;html=1;container=1;collapsible=0;recursiveResize=0;outlineConnect=0;" parent="hViUmRkHO7qMOMjgmf3x-1" vertex="1">
          <mxGeometry x="80" y="114" width="100" height="406" as="geometry" />
        </mxCell>
        <mxCell id="a6yt6d1-OOGEVtC6zJUz-5" value="Router" style="shape=umlLifeline;perimeter=lifelinePerimeter;whiteSpace=wrap;html=1;container=1;collapsible=0;recursiveResize=0;outlineConnect=0;" parent="hViUmRkHO7qMOMjgmf3x-1" vertex="1">
          <mxGeometry x="310" y="114" width="100" height="406" as="geometry" />
        </mxCell>
        <mxCell id="a6yt6d1-OOGEVtC6zJUz-8" value="" style="html=1;points=[];perimeter=orthogonalPerimeter;" parent="a6yt6d1-OOGEVtC6zJUz-5" vertex="1">
          <mxGeometry x="45" y="76" width="10" height="34" as="geometry" />
        </mxCell>
        <mxCell id="a6yt6d1-OOGEVtC6zJUz-23" value="" style="html=1;points=[];perimeter=orthogonalPerimeter;align=left;" parent="a6yt6d1-OOGEVtC6zJUz-5" vertex="1">
          <mxGeometry x="45" y="366" width="10" height="14" as="geometry" />
        </mxCell>
        <mxCell id="a6yt6d1-OOGEVtC6zJUz-6" value="search(type:symbol, keyword: BTCUSDT)" style="html=1;verticalAlign=bottom;endArrow=block;" parent="hViUmRkHO7qMOMjgmf3x-1" target="a6yt6d1-OOGEVtC6zJUz-5" edge="1">
          <mxGeometry width="80" relative="1" as="geometry">
            <mxPoint x="130" y="190" as="sourcePoint" />
            <mxPoint x="210" y="190" as="targetPoint" />
          </mxGeometry>
        </mxCell>
        <mxCell id="a6yt6d1-OOGEVtC6zJUz-7" value="Provider&lt;br&gt;Obejct1" style="shape=umlLifeline;perimeter=lifelinePerimeter;whiteSpace=wrap;html=1;container=1;collapsible=0;recursiveResize=0;outlineConnect=0;" parent="hViUmRkHO7qMOMjgmf3x-1" vertex="1">
          <mxGeometry x="570" y="114" width="100" height="396" as="geometry" />
        </mxCell>
        <mxCell id="a6yt6d1-OOGEVtC6zJUz-12" value="object.method" style="html=1;verticalAlign=bottom;endArrow=open;dashed=1;endSize=8;" parent="hViUmRkHO7qMOMjgmf3x-1" target="a6yt6d1-OOGEVtC6zJUz-4" edge="1">
          <mxGeometry relative="1" as="geometry">
            <mxPoint x="350" y="220" as="sourcePoint" />
            <mxPoint x="270" y="220" as="targetPoint" />
          </mxGeometry>
        </mxCell>
        <mxCell id="a6yt6d1-OOGEVtC6zJUz-13" value="search(type:symbol, keyword: BTCUSDT)" style="html=1;verticalAlign=bottom;endArrow=block;" parent="hViUmRkHO7qMOMjgmf3x-1" target="a6yt6d1-OOGEVtC6zJUz-14" edge="1">
          <mxGeometry width="80" relative="1" as="geometry">
            <mxPoint x="130" y="270" as="sourcePoint" />
            <mxPoint x="359.5" y="270" as="targetPoint" />
          </mxGeometry>
        </mxCell>
        <mxCell id="a6yt6d1-OOGEVtC6zJUz-14" value="Provider&lt;br&gt;Object2" style="shape=umlLifeline;perimeter=lifelinePerimeter;whiteSpace=wrap;html=1;container=1;collapsible=0;recursiveResize=0;outlineConnect=0;" parent="hViUmRkHO7qMOMjgmf3x-1" vertex="1">
          <mxGeometry x="710" y="114" width="100" height="396" as="geometry" />
        </mxCell>
        <mxCell id="a6yt6d1-OOGEVtC6zJUz-15" value="search(type:symbol, keyword: BTCUSDT)" style="html=1;verticalAlign=bottom;endArrow=block;" parent="hViUmRkHO7qMOMjgmf3x-1" edge="1">
          <mxGeometry width="80" relative="1" as="geometry">
            <mxPoint x="130" y="290" as="sourcePoint" />
            <mxPoint x="619.5" y="290" as="targetPoint" />
          </mxGeometry>
        </mxCell>
        <mxCell id="a6yt6d1-OOGEVtC6zJUz-16" value="symbol information" style="html=1;verticalAlign=bottom;endArrow=open;dashed=1;endSize=8;" parent="hViUmRkHO7qMOMjgmf3x-1" target="a6yt6d1-OOGEVtC6zJUz-4" edge="1">
          <mxGeometry relative="1" as="geometry">
            <mxPoint x="620" y="320" as="sourcePoint" />
            <mxPoint x="540" y="320" as="targetPoint" />
          </mxGeometry>
        </mxCell>
        <mxCell id="a6yt6d1-OOGEVtC6zJUz-17" value="symbol information" style="html=1;verticalAlign=bottom;endArrow=open;dashed=1;endSize=8;" parent="hViUmRkHO7qMOMjgmf3x-1" source="a6yt6d1-OOGEVtC6zJUz-14" edge="1">
          <mxGeometry relative="1" as="geometry">
            <mxPoint x="620.5" y="350" as="sourcePoint" />
            <mxPoint x="130" y="350" as="targetPoint" />
          </mxGeometry>
        </mxCell>
        <mxCell id="a6yt6d1-OOGEVtC6zJUz-18" value="[symbol:&#39;BTCUSDT&#39;,&lt;br&gt;price_data: &#39;Object1.price_data&#39;,&amp;nbsp;&lt;br&gt;get_quotes: &#39;Object2.get_quotes&#39;, ....]" style="text;html=1;strokeColor=none;fillColor=none;align=left;verticalAlign=middle;whiteSpace=wrap;rounded=0;" parent="hViUmRkHO7qMOMjgmf3x-1" vertex="1">
          <mxGeometry x="300" y="354" width="315" height="60" as="geometry" />
        </mxCell>
        <mxCell id="a6yt6d1-OOGEVtC6zJUz-19" value="User click symbol" style="html=1;verticalAlign=bottom;endArrow=block;" parent="hViUmRkHO7qMOMjgmf3x-1" edge="1">
          <mxGeometry width="80" relative="1" as="geometry">
            <mxPoint x="50" y="440" as="sourcePoint" />
            <mxPoint x="130" y="440" as="targetPoint" />
          </mxGeometry>
        </mxCell>
        <mxCell id="a6yt6d1-OOGEVtC6zJUz-20" value="Object2.get_quotes" style="html=1;verticalAlign=bottom;endArrow=block;" parent="hViUmRkHO7qMOMjgmf3x-1" target="a6yt6d1-OOGEVtC6zJUz-5" edge="1">
          <mxGeometry width="80" relative="1" as="geometry">
            <mxPoint x="130" y="450" as="sourcePoint" />
            <mxPoint x="140" y="450" as="targetPoint" />
          </mxGeometry>
        </mxCell>
        <mxCell id="a6yt6d1-OOGEVtC6zJUz-21" value="Object2.get_quotes" style="html=1;verticalAlign=bottom;endArrow=block;" parent="hViUmRkHO7qMOMjgmf3x-1" target="a6yt6d1-OOGEVtC6zJUz-14" edge="1">
          <mxGeometry width="80" relative="1" as="geometry">
            <mxPoint x="360" y="460" as="sourcePoint" />
            <mxPoint x="589.5" y="460" as="targetPoint" />
          </mxGeometry>
        </mxCell>
        <mxCell id="a6yt6d1-OOGEVtC6zJUz-22" value="quotes" style="html=1;verticalAlign=bottom;endArrow=open;dashed=1;endSize=8;" parent="hViUmRkHO7qMOMjgmf3x-1" edge="1">
          <mxGeometry relative="1" as="geometry">
            <mxPoint x="759.5" y="490" as="sourcePoint" />
            <mxPoint x="130" y="490" as="targetPoint" />
          </mxGeometry>
        </mxCell>
        <mxCell id="a6yt6d1-OOGEVtC6zJUz-9" value="find object which support symbol search" style="text;html=1;strokeColor=none;fillColor=none;align=center;verticalAlign=middle;whiteSpace=wrap;rounded=0;fontStyle=1" parent="hViUmRkHO7qMOMjgmf3x-1" vertex="1">
          <mxGeometry x="320" y="220" width="250" height="20" as="geometry" />
        </mxCell>
        <mxCell id="a6yt6d1-OOGEVtC6zJUz-24" value="Client" style="shape=umlLifeline;perimeter=lifelinePerimeter;whiteSpace=wrap;html=1;container=1;collapsible=0;recursiveResize=0;outlineConnect=0;" parent="hViUmRkHO7qMOMjgmf3x-1" vertex="1">
          <mxGeometry x="80" y="660" width="100" height="406" as="geometry" />
        </mxCell>
        <mxCell id="a6yt6d1-OOGEVtC6zJUz-25" value="Router" style="shape=umlLifeline;perimeter=lifelinePerimeter;whiteSpace=wrap;html=1;container=1;collapsible=0;recursiveResize=0;outlineConnect=0;" parent="hViUmRkHO7qMOMjgmf3x-1" vertex="1">
          <mxGeometry x="310" y="660" width="120" height="406" as="geometry" />
        </mxCell>
        <mxCell id="a6yt6d1-OOGEVtC6zJUz-28" value="Provider&lt;br&gt;Obejct1" style="shape=umlLifeline;perimeter=lifelinePerimeter;whiteSpace=wrap;html=1;container=1;collapsible=0;recursiveResize=0;outlineConnect=0;" parent="hViUmRkHO7qMOMjgmf3x-1" vertex="1">
          <mxGeometry x="550" y="660" width="100" height="396" as="geometry" />
        </mxCell>
        <mxCell id="a6yt6d1-OOGEVtC6zJUz-29" value="Provider&lt;br&gt;Object2" style="shape=umlLifeline;perimeter=lifelinePerimeter;whiteSpace=wrap;html=1;container=1;collapsible=0;recursiveResize=0;outlineConnect=0;" parent="hViUmRkHO7qMOMjgmf3x-1" vertex="1">
          <mxGeometry x="800" y="660" width="100" height="396" as="geometry" />
        </mxCell>
        <mxCell id="a6yt6d1-OOGEVtC6zJUz-30" value="search(type:symbol, keyword: BTCUSDT)" style="html=1;verticalAlign=bottom;endArrow=block;" parent="hViUmRkHO7qMOMjgmf3x-1" edge="1">
          <mxGeometry width="80" relative="1" as="geometry">
            <mxPoint x="130" y="750" as="sourcePoint" />
            <mxPoint x="359.5" y="750" as="targetPoint" />
          </mxGeometry>
        </mxCell>
        <mxCell id="a6yt6d1-OOGEVtC6zJUz-31" value="notification (msg_id)" style="html=1;verticalAlign=bottom;endArrow=open;dashed=1;endSize=8;" parent="hViUmRkHO7qMOMjgmf3x-1" edge="1">
          <mxGeometry relative="1" as="geometry">
            <mxPoint x="850.5" y="827" as="sourcePoint" />
            <mxPoint x="129.5" y="827" as="targetPoint" />
          </mxGeometry>
        </mxCell>
        <mxCell id="a6yt6d1-OOGEVtC6zJUz-32" value="search(type:symbol, keyword: BTCUSDT)" style="html=1;verticalAlign=bottom;endArrow=block;" parent="hViUmRkHO7qMOMjgmf3x-1" target="a6yt6d1-OOGEVtC6zJUz-28" edge="1">
          <mxGeometry width="80" relative="1" as="geometry">
            <mxPoint x="370" y="770" as="sourcePoint" />
            <mxPoint x="589.5" y="770" as="targetPoint" />
          </mxGeometry>
        </mxCell>
        <mxCell id="a6yt6d1-OOGEVtC6zJUz-33" value="search(type:symbol, keyword: BTCUSDT)" style="html=1;verticalAlign=bottom;endArrow=block;" parent="hViUmRkHO7qMOMjgmf3x-1" target="a6yt6d1-OOGEVtC6zJUz-29" edge="1">
          <mxGeometry width="80" relative="1" as="geometry">
            <mxPoint x="370" y="800" as="sourcePoint" />
            <mxPoint x="599.5" y="800" as="targetPoint" />
          </mxGeometry>
        </mxCell>
        <mxCell id="a6yt6d1-OOGEVtC6zJUz-34" value="notification (msd_id)" style="html=1;verticalAlign=bottom;endArrow=open;dashed=1;endSize=8;" parent="hViUmRkHO7qMOMjgmf3x-1" edge="1">
          <mxGeometry relative="1" as="geometry">
            <mxPoint x="600" y="855" as="sourcePoint" />
            <mxPoint x="130" y="854.5" as="targetPoint" />
          </mxGeometry>
        </mxCell>
        <mxCell id="a6yt6d1-OOGEVtC6zJUz-35" value="Session 타입인데, 별개의 Msg Type 지원 필요" style="text;html=1;strokeColor=none;fillColor=none;align=center;verticalAlign=middle;whiteSpace=wrap;rounded=0;fontStyle=1" parent="hViUmRkHO7qMOMjgmf3x-1" vertex="1">
          <mxGeometry x="290" y="870" width="390" height="20" as="geometry" />
        </mxCell>
        <mxCell id="a6yt6d1-OOGEVtC6zJUz-38" value="User click symbol" style="html=1;verticalAlign=bottom;endArrow=block;" parent="hViUmRkHO7qMOMjgmf3x-1" edge="1">
          <mxGeometry width="80" relative="1" as="geometry">
            <mxPoint x="50" y="980" as="sourcePoint" />
            <mxPoint x="130" y="980" as="targetPoint" />
          </mxGeometry>
        </mxCell>
        <mxCell id="a6yt6d1-OOGEVtC6zJUz-39" value="crypto:binance::BTCUSDT 로만 저장하는 경우" style="text;html=1;strokeColor=none;fillColor=none;align=center;verticalAlign=middle;whiteSpace=wrap;rounded=0;fontStyle=0" parent="hViUmRkHO7qMOMjgmf3x-1" vertex="1">
          <mxGeometry x="40" y="930" width="390" height="20" as="geometry" />
        </mxCell>
        <mxCell id="a6yt6d1-OOGEVtC6zJUz-40" value="{method: &#39;get_quotes&quot;,&lt;br&gt;params: crypto:binance:" style="html=1;verticalAlign=bottom;endArrow=block;" parent="hViUmRkHO7qMOMjgmf3x-1" edge="1">
          <mxGeometry width="80" relative="1" as="geometry">
            <mxPoint x="130" y="1000" as="sourcePoint" />
            <mxPoint x="359.5" y="1000" as="targetPoint" />
          </mxGeometry>
        </mxCell>
        <mxCell id="a6yt6d1-OOGEVtC6zJUz-41" value="expected notify : 2" style="html=1;verticalAlign=bottom;endArrow=open;dashed=1;endSize=8;" parent="hViUmRkHO7qMOMjgmf3x-1" edge="1">
          <mxGeometry relative="1" as="geometry">
            <mxPoint x="364.5" y="813.0000000000002" as="sourcePoint" />
            <mxPoint x="134.5" y="813.0000000000002" as="targetPoint" />
          </mxGeometry>
        </mxCell>
      </root>
    </mxGraphModel>
  </diagram>
  <diagram id="cmpnJkRSMfVmDEyNQ9Uh" name="Page-5">
    <mxGraphModel dx="3270" dy="1326" grid="1" gridSize="10" guides="1" tooltips="1" connect="1" arrows="1" fold="1" page="1" pageScale="1" pageWidth="827" pageHeight="1169" math="0" shadow="0">
      <root>
        <mxCell id="F29M7KM_d7ZHCENP0BxM-0" />
        <mxCell id="F29M7KM_d7ZHCENP0BxM-1" parent="F29M7KM_d7ZHCENP0BxM-0" />
        <mxCell id="F29M7KM_d7ZHCENP0BxM-7" value="request" style="edgeStyle=orthogonalEdgeStyle;rounded=0;orthogonalLoop=1;jettySize=auto;html=1;entryX=0;entryY=0.5;entryDx=0;entryDy=0;" edge="1" parent="F29M7KM_d7ZHCENP0BxM-1" source="F29M7KM_d7ZHCENP0BxM-2" target="F29M7KM_d7ZHCENP0BxM-3">
          <mxGeometry relative="1" as="geometry" />
        </mxCell>
        <mxCell id="F29M7KM_d7ZHCENP0BxM-2" value="client" style="rounded=0;whiteSpace=wrap;html=1;" vertex="1" parent="F29M7KM_d7ZHCENP0BxM-1">
          <mxGeometry x="130" y="90" width="120" height="60" as="geometry" />
        </mxCell>
        <mxCell id="F29M7KM_d7ZHCENP0BxM-8" value="choose1" style="edgeStyle=orthogonalEdgeStyle;rounded=0;orthogonalLoop=1;jettySize=auto;html=1;entryX=0;entryY=0.5;entryDx=0;entryDy=0;" edge="1" parent="F29M7KM_d7ZHCENP0BxM-1" source="F29M7KM_d7ZHCENP0BxM-3" target="F29M7KM_d7ZHCENP0BxM-5">
          <mxGeometry relative="1" as="geometry" />
        </mxCell>
        <mxCell id="F29M7KM_d7ZHCENP0BxM-3" value="router" style="rounded=0;whiteSpace=wrap;html=1;" vertex="1" parent="F29M7KM_d7ZHCENP0BxM-1">
          <mxGeometry x="320" y="90" width="120" height="60" as="geometry" />
        </mxCell>
        <mxCell id="F29M7KM_d7ZHCENP0BxM-4" value="provider1" style="rounded=0;whiteSpace=wrap;html=1;" vertex="1" parent="F29M7KM_d7ZHCENP0BxM-1">
          <mxGeometry x="510" y="60" width="120" height="60" as="geometry" />
        </mxCell>
        <mxCell id="F29M7KM_d7ZHCENP0BxM-5" value="provider2" style="rounded=0;whiteSpace=wrap;html=1;" vertex="1" parent="F29M7KM_d7ZHCENP0BxM-1">
          <mxGeometry x="510" y="130" width="120" height="60" as="geometry" />
        </mxCell>
        <mxCell id="F29M7KM_d7ZHCENP0BxM-6" value="providerx ..." style="rounded=0;whiteSpace=wrap;html=1;" vertex="1" parent="F29M7KM_d7ZHCENP0BxM-1">
          <mxGeometry x="510" y="200" width="120" height="30" as="geometry" />
        </mxCell>
        <mxCell id="F29M7KM_d7ZHCENP0BxM-9" value="return" style="html=1;verticalAlign=bottom;endArrow=open;dashed=1;endSize=8;entryX=0.392;entryY=1.05;entryDx=0;entryDy=0;entryPerimeter=0;exitX=0;exitY=0.75;exitDx=0;exitDy=0;" edge="1" parent="F29M7KM_d7ZHCENP0BxM-1" source="F29M7KM_d7ZHCENP0BxM-5" target="F29M7KM_d7ZHCENP0BxM-3">
          <mxGeometry relative="1" as="geometry">
            <mxPoint x="510" y="170" as="sourcePoint" />
            <mxPoint x="430" y="170" as="targetPoint" />
            <Array as="points">
              <mxPoint x="367" y="175" />
            </Array>
          </mxGeometry>
        </mxCell>
        <mxCell id="F29M7KM_d7ZHCENP0BxM-10" value="return" style="html=1;verticalAlign=bottom;endArrow=open;dashed=1;endSize=8;exitX=-0.008;exitY=0.867;exitDx=0;exitDy=0;exitPerimeter=0;entryX=1;entryY=0.867;entryDx=0;entryDy=0;entryPerimeter=0;" edge="1" parent="F29M7KM_d7ZHCENP0BxM-1" source="F29M7KM_d7ZHCENP0BxM-3" target="F29M7KM_d7ZHCENP0BxM-2">
          <mxGeometry relative="1" as="geometry">
            <mxPoint x="250" y="250" as="sourcePoint" />
            <mxPoint x="170" y="250" as="targetPoint" />
          </mxGeometry>
        </mxCell>
        <mxCell id="F29M7KM_d7ZHCENP0BxM-11" value="REQ / RES" style="text;html=1;strokeColor=none;fillColor=none;align=center;verticalAlign=middle;whiteSpace=wrap;rounded=0;" vertex="1" parent="F29M7KM_d7ZHCENP0BxM-1">
          <mxGeometry x="130" y="30" width="120" height="30" as="geometry" />
        </mxCell>
        <mxCell id="F29M7KM_d7ZHCENP0BxM-12" value="1. 특정 symbol의 특정 기간 price 요청" style="text;html=1;strokeColor=none;fillColor=none;align=center;verticalAlign=middle;whiteSpace=wrap;rounded=0;" vertex="1" parent="F29M7KM_d7ZHCENP0BxM-1">
          <mxGeometry x="225" y="30" width="310" height="40" as="geometry" />
        </mxCell>
        <mxCell id="F29M7KM_d7ZHCENP0BxM-14" value="&lt;b&gt;choose 방식&lt;/b&gt;&lt;br&gt;1. default: 마지막 요청 시간이 가장 오래된 provider&lt;br&gt;2. client 에서 name 을 지정하는 경우 해당 provider로 전달" style="text;html=1;strokeColor=none;fillColor=none;align=left;verticalAlign=middle;whiteSpace=wrap;rounded=0;" vertex="1" parent="F29M7KM_d7ZHCENP0BxM-1">
          <mxGeometry x="140" y="190" width="310" height="40" as="geometry" />
        </mxCell>
        <mxCell id="F29M7KM_d7ZHCENP0BxM-15" value="WATCH" style="text;html=1;strokeColor=none;fillColor=none;align=center;verticalAlign=middle;whiteSpace=wrap;rounded=0;" vertex="1" parent="F29M7KM_d7ZHCENP0BxM-1">
          <mxGeometry x="130" y="290" width="120" height="30" as="geometry" />
        </mxCell>
        <mxCell id="F29M7KM_d7ZHCENP0BxM-22" value="watch" style="edgeStyle=orthogonalEdgeStyle;rounded=0;orthogonalLoop=1;jettySize=auto;html=1;" edge="1" parent="F29M7KM_d7ZHCENP0BxM-1" source="F29M7KM_d7ZHCENP0BxM-16" target="F29M7KM_d7ZHCENP0BxM-18">
          <mxGeometry relative="1" as="geometry" />
        </mxCell>
        <mxCell id="F29M7KM_d7ZHCENP0BxM-16" value="client" style="rounded=0;whiteSpace=wrap;html=1;" vertex="1" parent="F29M7KM_d7ZHCENP0BxM-1">
          <mxGeometry x="130" y="340" width="120" height="60" as="geometry" />
        </mxCell>
        <mxCell id="F29M7KM_d7ZHCENP0BxM-17" value="client" style="rounded=0;whiteSpace=wrap;html=1;" vertex="1" parent="F29M7KM_d7ZHCENP0BxM-1">
          <mxGeometry x="130" y="420" width="120" height="60" as="geometry" />
        </mxCell>
        <mxCell id="F29M7KM_d7ZHCENP0BxM-23" value="watch" style="edgeStyle=orthogonalEdgeStyle;rounded=0;orthogonalLoop=1;jettySize=auto;html=1;entryX=0;entryY=0.5;entryDx=0;entryDy=0;" edge="1" parent="F29M7KM_d7ZHCENP0BxM-1" source="F29M7KM_d7ZHCENP0BxM-18" target="F29M7KM_d7ZHCENP0BxM-19">
          <mxGeometry relative="1" as="geometry" />
        </mxCell>
        <mxCell id="F29M7KM_d7ZHCENP0BxM-18" value="router" style="rounded=0;whiteSpace=wrap;html=1;" vertex="1" parent="F29M7KM_d7ZHCENP0BxM-1">
          <mxGeometry x="320" y="340" width="120" height="60" as="geometry" />
        </mxCell>
        <mxCell id="F29M7KM_d7ZHCENP0BxM-19" value="provider1" style="rounded=0;whiteSpace=wrap;html=1;" vertex="1" parent="F29M7KM_d7ZHCENP0BxM-1">
          <mxGeometry x="510" y="340" width="120" height="60" as="geometry" />
        </mxCell>
        <mxCell id="F29M7KM_d7ZHCENP0BxM-20" value="provider2" style="rounded=0;whiteSpace=wrap;html=1;" vertex="1" parent="F29M7KM_d7ZHCENP0BxM-1">
          <mxGeometry x="510" y="410" width="120" height="60" as="geometry" />
        </mxCell>
        <mxCell id="F29M7KM_d7ZHCENP0BxM-21" value="providerx ..." style="rounded=0;whiteSpace=wrap;html=1;" vertex="1" parent="F29M7KM_d7ZHCENP0BxM-1">
          <mxGeometry x="510" y="480" width="120" height="30" as="geometry" />
        </mxCell>
        <mxCell id="F29M7KM_d7ZHCENP0BxM-25" value="router 에서 각 provider의 symbol / method별 watch 관리&lt;br&gt;이미 watch 등록된 ns / method / symbol 의 경우 router에서 client 목록만 추가&lt;br&gt;method 생성시 watch property on" style="text;html=1;strokeColor=none;fillColor=none;align=left;verticalAlign=middle;whiteSpace=wrap;rounded=0;" vertex="1" parent="F29M7KM_d7ZHCENP0BxM-1">
          <mxGeometry x="259" y="280" width="511" height="40" as="geometry" />
        </mxCell>
        <mxCell id="F29M7KM_d7ZHCENP0BxM-26" value="current watch count" style="html=1;verticalAlign=bottom;endArrow=open;dashed=1;endSize=8;entryX=0.5;entryY=1;entryDx=0;entryDy=0;exitX=0;exitY=0.75;exitDx=0;exitDy=0;" edge="1" parent="F29M7KM_d7ZHCENP0BxM-1" source="F29M7KM_d7ZHCENP0BxM-19" target="F29M7KM_d7ZHCENP0BxM-18">
          <mxGeometry relative="1" as="geometry">
            <mxPoint x="463" y="442" as="sourcePoint" />
            <mxPoint x="320.03999999999996" y="420" as="targetPoint" />
            <Array as="points">
              <mxPoint x="460" y="420" />
            </Array>
          </mxGeometry>
        </mxCell>
        <mxCell id="F29M7KM_d7ZHCENP0BxM-27" value="watch" style="edgeStyle=orthogonalEdgeStyle;rounded=0;orthogonalLoop=1;jettySize=auto;html=1;exitX=1;exitY=0.5;exitDx=0;exitDy=0;entryX=0.175;entryY=1.067;entryDx=0;entryDy=0;entryPerimeter=0;" edge="1" parent="F29M7KM_d7ZHCENP0BxM-1" source="F29M7KM_d7ZHCENP0BxM-17" target="F29M7KM_d7ZHCENP0BxM-18">
          <mxGeometry relative="1" as="geometry">
            <mxPoint x="260" y="380" as="sourcePoint" />
            <mxPoint x="330" y="380" as="targetPoint" />
          </mxGeometry>
        </mxCell>
        <mxCell id="F29M7KM_d7ZHCENP0BxM-28" value="NOTIFY" style="text;html=1;strokeColor=none;fillColor=none;align=center;verticalAlign=middle;whiteSpace=wrap;rounded=0;" vertex="1" parent="F29M7KM_d7ZHCENP0BxM-1">
          <mxGeometry x="120" y="540" width="120" height="30" as="geometry" />
        </mxCell>
        <mxCell id="F29M7KM_d7ZHCENP0BxM-29" value="client" style="rounded=0;whiteSpace=wrap;html=1;" vertex="1" parent="F29M7KM_d7ZHCENP0BxM-1">
          <mxGeometry x="120" y="600" width="120" height="60" as="geometry" />
        </mxCell>
        <mxCell id="F29M7KM_d7ZHCENP0BxM-30" value="client" style="rounded=0;whiteSpace=wrap;html=1;" vertex="1" parent="F29M7KM_d7ZHCENP0BxM-1">
          <mxGeometry x="120" y="690" width="120" height="60" as="geometry" />
        </mxCell>
        <mxCell id="F29M7KM_d7ZHCENP0BxM-34" style="edgeStyle=orthogonalEdgeStyle;rounded=0;orthogonalLoop=1;jettySize=auto;html=1;entryX=1;entryY=0.5;entryDx=0;entryDy=0;" edge="1" parent="F29M7KM_d7ZHCENP0BxM-1" source="F29M7KM_d7ZHCENP0BxM-31" target="F29M7KM_d7ZHCENP0BxM-29">
          <mxGeometry relative="1" as="geometry" />
        </mxCell>
        <mxCell id="F29M7KM_d7ZHCENP0BxM-35" value="notify" style="edgeStyle=orthogonalEdgeStyle;rounded=0;orthogonalLoop=1;jettySize=auto;html=1;entryX=1;entryY=0.5;entryDx=0;entryDy=0;" edge="1" parent="F29M7KM_d7ZHCENP0BxM-1" source="F29M7KM_d7ZHCENP0BxM-31" target="F29M7KM_d7ZHCENP0BxM-30">
          <mxGeometry relative="1" as="geometry" />
        </mxCell>
        <mxCell id="F29M7KM_d7ZHCENP0BxM-31" value="router" style="rounded=0;whiteSpace=wrap;html=1;" vertex="1" parent="F29M7KM_d7ZHCENP0BxM-1">
          <mxGeometry x="320" y="640" width="120" height="60" as="geometry" />
        </mxCell>
        <mxCell id="F29M7KM_d7ZHCENP0BxM-33" value="notify" style="edgeStyle=orthogonalEdgeStyle;rounded=0;orthogonalLoop=1;jettySize=auto;html=1;entryX=1;entryY=0.5;entryDx=0;entryDy=0;" edge="1" parent="F29M7KM_d7ZHCENP0BxM-1" source="F29M7KM_d7ZHCENP0BxM-32" target="F29M7KM_d7ZHCENP0BxM-31">
          <mxGeometry relative="1" as="geometry" />
        </mxCell>
        <mxCell id="F29M7KM_d7ZHCENP0BxM-32" value="provider1" style="rounded=0;whiteSpace=wrap;html=1;" vertex="1" parent="F29M7KM_d7ZHCENP0BxM-1">
          <mxGeometry x="510" y="640" width="120" height="60" as="geometry" />
        </mxCell>
        <mxCell id="F29M7KM_d7ZHCENP0BxM-36" value="notify_xxxx 형식,&amp;nbsp; notify_ 제외 후 watch property 에 등록된 client 에 전달" style="text;html=1;strokeColor=none;fillColor=none;align=left;verticalAlign=middle;whiteSpace=wrap;rounded=0;" vertex="1" parent="F29M7KM_d7ZHCENP0BxM-1">
          <mxGeometry x="306" y="560" width="511" height="40" as="geometry" />
        </mxCell>
        <mxCell id="F29M7KM_d7ZHCENP0BxM-37" value="REQ (option:match all)" style="text;html=1;strokeColor=none;fillColor=none;align=center;verticalAlign=middle;whiteSpace=wrap;rounded=0;" vertex="1" parent="F29M7KM_d7ZHCENP0BxM-1">
          <mxGeometry x="120" y="800" width="170" height="30" as="geometry" />
        </mxCell>
        <mxCell id="F29M7KM_d7ZHCENP0BxM-40" value="search" style="edgeStyle=orthogonalEdgeStyle;rounded=0;orthogonalLoop=1;jettySize=auto;html=1;entryX=0;entryY=0.5;entryDx=0;entryDy=0;" edge="1" parent="F29M7KM_d7ZHCENP0BxM-1" source="F29M7KM_d7ZHCENP0BxM-38" target="F29M7KM_d7ZHCENP0BxM-39">
          <mxGeometry relative="1" as="geometry" />
        </mxCell>
        <mxCell id="F29M7KM_d7ZHCENP0BxM-38" value="client" style="rounded=0;whiteSpace=wrap;html=1;" vertex="1" parent="F29M7KM_d7ZHCENP0BxM-1">
          <mxGeometry x="120" y="840" width="120" height="60" as="geometry" />
        </mxCell>
        <mxCell id="F29M7KM_d7ZHCENP0BxM-43" style="edgeStyle=orthogonalEdgeStyle;rounded=0;orthogonalLoop=1;jettySize=auto;html=1;" edge="1" parent="F29M7KM_d7ZHCENP0BxM-1" source="F29M7KM_d7ZHCENP0BxM-39" target="F29M7KM_d7ZHCENP0BxM-41">
          <mxGeometry relative="1" as="geometry" />
        </mxCell>
        <mxCell id="F29M7KM_d7ZHCENP0BxM-44" style="edgeStyle=orthogonalEdgeStyle;rounded=0;orthogonalLoop=1;jettySize=auto;html=1;entryX=0;entryY=0.5;entryDx=0;entryDy=0;" edge="1" parent="F29M7KM_d7ZHCENP0BxM-1" source="F29M7KM_d7ZHCENP0BxM-39" target="F29M7KM_d7ZHCENP0BxM-42">
          <mxGeometry relative="1" as="geometry" />
        </mxCell>
        <mxCell id="F29M7KM_d7ZHCENP0BxM-39" value="router" style="rounded=0;whiteSpace=wrap;html=1;" vertex="1" parent="F29M7KM_d7ZHCENP0BxM-1">
          <mxGeometry x="330" y="840" width="120" height="60" as="geometry" />
        </mxCell>
        <mxCell id="F29M7KM_d7ZHCENP0BxM-41" value="provider1" style="rounded=0;whiteSpace=wrap;html=1;" vertex="1" parent="F29M7KM_d7ZHCENP0BxM-1">
          <mxGeometry x="510" y="800" width="120" height="60" as="geometry" />
        </mxCell>
        <mxCell id="F29M7KM_d7ZHCENP0BxM-42" value="provider1" style="rounded=0;whiteSpace=wrap;html=1;" vertex="1" parent="F29M7KM_d7ZHCENP0BxM-1">
          <mxGeometry x="510" y="890" width="120" height="60" as="geometry" />
        </mxCell>
        <mxCell id="F29M7KM_d7ZHCENP0BxM-45" value="provider count" style="html=1;verticalAlign=bottom;endArrow=open;dashed=1;endSize=8;exitX=0;exitY=0.75;exitDx=0;exitDy=0;entryX=1;entryY=0.75;entryDx=0;entryDy=0;" edge="1" parent="F29M7KM_d7ZHCENP0BxM-1" source="F29M7KM_d7ZHCENP0BxM-39" target="F29M7KM_d7ZHCENP0BxM-38">
          <mxGeometry x="0.1111" y="35" relative="1" as="geometry">
            <mxPoint x="280" y="960" as="sourcePoint" />
            <mxPoint x="200" y="960" as="targetPoint" />
            <mxPoint as="offset" />
          </mxGeometry>
        </mxCell>
        <mxCell id="F29M7KM_d7ZHCENP0BxM-46" value="search 시 msg id 기반으로 count 도달하면 msg id 삭제&lt;br&gt;notify_search, msg_id 로 전달" style="text;html=1;strokeColor=none;fillColor=none;align=left;verticalAlign=middle;whiteSpace=wrap;rounded=0;" vertex="1" parent="F29M7KM_d7ZHCENP0BxM-1">
          <mxGeometry x="119" y="940" width="511" height="40" as="geometry" />
        </mxCell>
        <mxCell id="F29M7KM_d7ZHCENP0BxM-48" value="namespace based&lt;br&gt;ns: object:type:exchange:broker:name" style="text;html=1;strokeColor=none;fillColor=none;align=center;verticalAlign=middle;whiteSpace=wrap;rounded=0;" vertex="1" parent="F29M7KM_d7ZHCENP0BxM-1">
          <mxGeometry x="817" y="60" width="310" height="40" as="geometry" />
        </mxCell>
        <mxCell id="F29M7KM_d7ZHCENP0BxM-50" value="router" style="rounded=0;whiteSpace=wrap;html=1;align=left;horizontal=1;verticalAlign=top;" vertex="1" parent="F29M7KM_d7ZHCENP0BxM-1">
          <mxGeometry x="940" y="380" width="570" height="130" as="geometry" />
        </mxCell>
        <mxCell id="F29M7KM_d7ZHCENP0BxM-56" value="Provider" style="shape=umlLifeline;perimeter=lifelinePerimeter;whiteSpace=wrap;html=1;container=1;collapsible=0;recursiveResize=0;outlineConnect=0;align=center;" vertex="1" parent="F29M7KM_d7ZHCENP0BxM-1">
          <mxGeometry x="1130" y="20" width="100" height="300" as="geometry" />
        </mxCell>
        <mxCell id="F29M7KM_d7ZHCENP0BxM-58" value="set_connection&lt;br&gt;(subscribe limit)" style="html=1;verticalAlign=bottom;endArrow=block;entryX=0.47;entryY=0.263;entryDx=0;entryDy=0;entryPerimeter=0;" edge="1" parent="F29M7KM_d7ZHCENP0BxM-56" target="F29M7KM_d7ZHCENP0BxM-57">
          <mxGeometry width="80" relative="1" as="geometry">
            <mxPoint x="50" y="80" as="sourcePoint" />
            <mxPoint x="130" y="80" as="targetPoint" />
          </mxGeometry>
        </mxCell>
        <mxCell id="F29M7KM_d7ZHCENP0BxM-57" value="router" style="shape=umlLifeline;perimeter=lifelinePerimeter;whiteSpace=wrap;html=1;container=1;collapsible=0;recursiveResize=0;outlineConnect=0;align=center;" vertex="1" parent="F29M7KM_d7ZHCENP0BxM-1">
          <mxGeometry x="1300" y="20" width="100" height="300" as="geometry" />
        </mxCell>
        <mxCell id="F29M7KM_d7ZHCENP0BxM-59" value="regist" style="html=1;verticalAlign=bottom;endArrow=block;entryX=0.47;entryY=0.263;entryDx=0;entryDy=0;entryPerimeter=0;" edge="1" parent="F29M7KM_d7ZHCENP0BxM-1">
          <mxGeometry width="80" relative="1" as="geometry">
            <mxPoint x="1180" y="150" as="sourcePoint" />
            <mxPoint x="1347" y="148.9000000000001" as="targetPoint" />
          </mxGeometry>
        </mxCell>
        <mxCell id="F29M7KM_d7ZHCENP0BxM-60" value="quote_v1:crypto:binance::&lt;br&gt;methods" style="text;html=1;strokeColor=none;fillColor=none;align=center;verticalAlign=middle;whiteSpace=wrap;rounded=0;" vertex="1" parent="F29M7KM_d7ZHCENP0BxM-1">
          <mxGeometry x="1180" y="150" width="310" height="40" as="geometry" />
        </mxCell>
        <mxCell id="F29M7KM_d7ZHCENP0BxM-62" value="trade:crypto:binance::&lt;br&gt;methods" style="text;html=1;strokeColor=none;fillColor=none;align=center;verticalAlign=middle;whiteSpace=wrap;rounded=0;" vertex="1" parent="F29M7KM_d7ZHCENP0BxM-1">
          <mxGeometry x="1180" y="190" width="310" height="40" as="geometry" />
        </mxCell>
        <mxCell id="F29M7KM_d7ZHCENP0BxM-63" value="symbol:crypto:binance::&lt;br&gt;methods" style="text;html=1;strokeColor=none;fillColor=none;align=center;verticalAlign=middle;whiteSpace=wrap;rounded=0;" vertex="1" parent="F29M7KM_d7ZHCENP0BxM-1">
          <mxGeometry x="1180" y="240" width="310" height="40" as="geometry" />
        </mxCell>
        <mxCell id="F29M7KM_d7ZHCENP0BxM-64" value="Provider" style="rounded=0;whiteSpace=wrap;html=1;align=left;verticalAlign=top;" vertex="1" parent="F29M7KM_d7ZHCENP0BxM-1">
          <mxGeometry x="980" y="390" width="280" height="110" as="geometry" />
        </mxCell>
        <mxCell id="F29M7KM_d7ZHCENP0BxM-65" value="Provider" style="rounded=0;whiteSpace=wrap;html=1;" vertex="1" parent="F29M7KM_d7ZHCENP0BxM-1">
          <mxGeometry x="1275" y="390" width="135" height="30" as="geometry" />
        </mxCell>
        <mxCell id="F29M7KM_d7ZHCENP0BxM-66" value="Provider" style="rounded=0;whiteSpace=wrap;html=1;" vertex="1" parent="F29M7KM_d7ZHCENP0BxM-1">
          <mxGeometry x="1275" y="430" width="135" height="30" as="geometry" />
        </mxCell>
        <mxCell id="F29M7KM_d7ZHCENP0BxM-67" value="Provider" style="rounded=0;whiteSpace=wrap;html=1;" vertex="1" parent="F29M7KM_d7ZHCENP0BxM-1">
          <mxGeometry x="1275" y="470" width="135" height="30" as="geometry" />
        </mxCell>
        <mxCell id="F29M7KM_d7ZHCENP0BxM-68" value="quote" style="rounded=0;whiteSpace=wrap;html=1;" vertex="1" parent="F29M7KM_d7ZHCENP0BxM-1">
          <mxGeometry x="992" y="410" width="88" height="30" as="geometry" />
        </mxCell>
        <mxCell id="F29M7KM_d7ZHCENP0BxM-69" value="trade" style="rounded=0;whiteSpace=wrap;html=1;" vertex="1" parent="F29M7KM_d7ZHCENP0BxM-1">
          <mxGeometry x="992" y="460" width="88" height="30" as="geometry" />
        </mxCell>
        <mxCell id="F29M7KM_d7ZHCENP0BxM-70" value="symbol" style="rounded=0;whiteSpace=wrap;html=1;" vertex="1" parent="F29M7KM_d7ZHCENP0BxM-1">
          <mxGeometry x="1100" y="410" width="90" height="30" as="geometry" />
        </mxCell>
        <mxCell id="F29M7KM_d7ZHCENP0BxM-71" value="signal:.......&lt;br&gt;methods" style="text;html=1;strokeColor=none;fillColor=none;align=center;verticalAlign=middle;whiteSpace=wrap;rounded=0;" vertex="1" parent="F29M7KM_d7ZHCENP0BxM-1">
          <mxGeometry x="1180" y="290" width="310" height="40" as="geometry" />
        </mxCell>
      </root>
    </mxGraphModel>
  </diagram>
</mxfile>
